<?xml version="1.0" standalone="no"?>
<!DOCTYPE svg PUBLIC "-//W3C//DTD SVG 1.1//EN" "http://www.w3.org/Graphics/SVG/1.1/DTD/svg11.dtd" >
<svg>
<metadata>
Created by FontForge 20120731 at Fri Aug  5 00:50:17 2016
 By ,,,
(c) 1990, 2002 Adobe Systems Incorporated. All rights reserved.
</metadata>
<defs>
<font id="HelveticaNeueLTStd-ThEx" horiz-adv-x="166" >
  <font-face 
    font-family="HelveticaNeueLT Std Thin Ext"
    font-weight="250"
    font-stretch="expanded"
    units-per-em="1000"
    panose-1="2 11 4 4 2 2 2 2 2 4"
    ascent="714"
    descent="-286"
    x-height="512"
    cap-height="714"
    bbox="-165 -220 1162 950"
    underline-thickness="50"
    underline-position="-50"
    unicode-range="U+0020-FB02"
  />
<missing-glyph horiz-adv-x="500" 
d="M0 0v700h500v-700h-500zM250 395l170 255h-340zM280 350l170 -255v510zM80 50h340l-170 255zM50 605v-510l170 255z" />
    <glyph glyph-name="f_i" unicode="fi" horiz-adv-x="444" 
d="M352 0v512h46v-512h-46zM352 608v106h46v-106h-46zM110 0v472h-120v40h120v77q0 66 27.5 98.5t102.5 32.5q21 0 79 -6v-40q-33 6 -73 6q-90 0 -90 -77v-91h148v-40h-148v-472h-46z" />
    <glyph glyph-name="f_l" unicode="fl" horiz-adv-x="444" 
d="M110 0v472h-120v40h120v77q0 66 27.5 98.5t102.5 32.5q21 0 79 -6v-40q-33 6 -73 6q-90 0 -90 -77v-91h148v-40h-148v-472h-46zM352 0v714h46v-714h-46z" />
    <glyph glyph-name=".notdef" horiz-adv-x="500" 
d="M0 0v700h500v-700h-500zM250 395l170 255h-340zM280 350l170 -255v510zM80 50h340l-170 255zM50 605v-510l170 255z" />
    <glyph glyph-name=".null" horiz-adv-x="0" 
 />
    <glyph glyph-name="nonmarkingreturn" horiz-adv-x="333" 
 />
    <glyph glyph-name="space" unicode=" " horiz-adv-x="222" 
 />
    <glyph glyph-name="exclam" unicode="!" horiz-adv-x="258" 
d="M103 523v191h52v-191q0 -64 -4 -181t-5 -158h-34q-1 41 -5 158t-4 181zM103 0v100h52v-100h-52z" />
    <glyph glyph-name="quotedbl" unicode="&#x22;" horiz-adv-x="352" 
d="M86 484v230h40v-230h-40zM226 484v230h40v-230h-40z" />
    <glyph glyph-name="numbersign" unicode="#" horiz-adv-x="648" 
d="M157 0l31 228h-113v34h118l25 180h-113v34h118l31 228h34l-31 -228h169l31 228h34l-31 -228h113v-34h-118l-25 -180h113v-34h-118l-31 -228h-34l31 228h-169l-31 -228h-34zM396 262l25 180h-169l-25 -180h169z" />
    <glyph glyph-name="dollar" unicode="$" horiz-adv-x="648" 
d="M344 335v-311q115 1 169.5 44.5t54.5 111.5q0 60 -35 90t-132 52zM310 388v292q-209 -4 -209 -144q0 -65 50 -96t159 -52zM310 24v318l-51 11q-116 25 -163 65.5t-47 121.5q0 85 68.5 132t192.5 48v74h34v-74q250 -15 257 -215h-46q-13 167 -211 175v-299l62 -12
q110 -21 162 -63t52 -123q0 -83 -64.5 -140.5t-211.5 -58.5v-94h-34v94q-282 14 -282 249h46q2 -198 236 -209z" />
    <glyph glyph-name="percent" unicode="%" horiz-adv-x="926" 
d="M231 337q-86 0 -130 52t-44 141q0 86 45 138t129 52q87 0 130.5 -50.5t43.5 -139.5q0 -86 -44.5 -139.5t-129.5 -53.5zM231 371q69 0 101.5 44t32.5 115t-32.5 113.5t-101.5 42.5q-68 0 -101 -42.5t-33 -113.5q0 -72 33 -115.5t101 -43.5zM695 -16q-86 0 -130 52t-44 141
q0 86 45 138t129 52q87 0 130.5 -50.5t43.5 -139.5q0 -86 -44.5 -139.5t-129.5 -53.5zM695 18q69 0 101.5 44t32.5 115t-32.5 113.5t-101.5 42.5q-68 0 -101 -42.5t-33 -113.5q0 -72 33 -115.5t101 -43.5zM170 -22l529 748h40l-529 -748h-40z" />
    <glyph glyph-name="ampersand" unicode="&#x26;" horiz-adv-x="741" 
d="M344 399l249 -237q17 23 28.5 61t11.5 68h46q0 -40 -16 -84.5t-40 -74.5l139 -132h-66l-100 96q-59 -61 -123.5 -86.5t-153.5 -25.5q-125 0 -191.5 62.5t-66.5 149.5q0 36 15 67.5t34 51.5t53.5 40.5t54 29t55.5 23.5q-41 44 -57 63t-30 48.5t-14 61.5q0 22 8.5 44.5
t26.5 44.5t52 36t80 14q72 0 119.5 -36.5t47.5 -102.5q0 -30 -12 -56.5t-27.5 -44.5t-41.5 -35.5t-41.5 -26t-39.5 -19.5zM218 583q0 -69 99 -155q30 14 47 23t43.5 28t39.5 43.5t13 54.5q0 53 -38 78t-83 25q-58 0 -89.5 -29t-31.5 -68zM566 127l-264 253q-97 -38 -146 -78
t-49 -105q0 -82 61.5 -127.5t155.5 -45.5q66 0 123 22.5t81 42.5t38 38z" />
    <glyph glyph-name="quotesingle" unicode="'" horiz-adv-x="222" 
d="M91 484v230h40v-230h-40z" />
    <glyph glyph-name="parenleft" unicode="(" horiz-adv-x="296" 
d="M271 -190h-40q-163 230 -163 452t163 452h40q-82 -131 -116.5 -226t-34.5 -226t34.5 -226t116.5 -226z" />
    <glyph glyph-name="parenright" unicode=")" horiz-adv-x="296" 
d="M25 714h40q163 -230 163 -452t-163 -452h-40q82 131 116.5 226t34.5 226t-34.5 226t-116.5 226z" />
    <glyph glyph-name="asterisk" unicode="*" horiz-adv-x="408" 
d="M83 424l95 112l-139 50l14 33l134 -46v141h34v-141l134 46l14 -33l-139 -50l95 -112l-28 -22l-93 110l-93 -110z" />
    <glyph glyph-name="plus" unicode="+" horiz-adv-x="600" 
d="M47 233v40h233v233h40v-233h233v-40h-233v-233h-40v233h-233z" />
    <glyph glyph-name="comma" unicode="," horiz-adv-x="222" 
d="M85 0v100h52v-100q0 -102 -70 -130v34q36 16 36 81v15h-18z" />
    <glyph glyph-name="hyphen" unicode="-" horiz-adv-x="407" 
d="M75 247v46h257v-46h-257z" />
    <glyph glyph-name="period" unicode="." horiz-adv-x="222" 
d="M85 0v100h52v-100h-52z" />
    <glyph glyph-name="slash" unicode="/" horiz-adv-x="407" 
d="M418 730l-383 -746h-46l383 746h46z" />
    <glyph glyph-name="zero" unicode="0" horiz-adv-x="648" 
d="M619 352q0 -62 -9 -114.5t-30.5 -100t-55 -81t-84.5 -53t-116 -19.5q-80 0 -138.5 29.5t-92 82t-49 116t-15.5 140.5q0 76 16 140t49 116.5t92 82t138 29.5q80 0 139 -29.5t92 -82t48.5 -116t15.5 -140.5zM573 352q0 68 -12 124t-39 103.5t-77.5 74t-120.5 26.5
q-69 0 -119 -27t-77.5 -75t-40 -103.5t-12.5 -122.5q0 -52 7 -98t25 -89t45.5 -73.5t71.5 -49t100 -18.5q249 0 249 328z" />
    <glyph glyph-name="one" unicode="1" horiz-adv-x="426" 
d="M293 704v-704h-46v625q-85 -78 -222 -91v40q61 2 133 39.5t95 90.5h40z" />
    <glyph glyph-name="two" unicode="2" horiz-adv-x="648" 
d="M590 40v-40h-532q6 49 19 83t44 65t68 55.5t107 64.5q133 76 169 107q60 52 64 124v12q0 81 -54 125t-154 44q-205 0 -205 -211h-46q1 129 65.5 190t192.5 61q122 0 184.5 -56t62.5 -151q0 -33 -5 -58t-21 -49.5t-31 -40.5t-52 -41.5t-65 -42t-88 -51.5
q-112 -66 -151 -102q-52 -47 -52 -88h480z" />
    <glyph glyph-name="three" unicode="3" horiz-adv-x="648" 
d="M288 356v40q31 0 48 0.5t47.5 3t47.5 7t39.5 14t34.5 23.5t20.5 35.5t8.5 48.5q0 152 -197 152q-104 0 -163 -48t-59 -148h-46q7 236 268 236q113 0 178 -48.5t65 -136.5q0 -141 -156 -155v-2q29 -1 57 -10.5t55.5 -30t44.5 -59.5t17 -92q0 -91 -69.5 -146.5
t-200.5 -55.5q-132 0 -204.5 61.5t-73.5 188.5h46q0 -210 237 -210q41 0 76 7.5t69.5 25t54 53t19.5 86.5q0 33 -10.5 59t-24.5 42.5t-39 28.5t-45 17.5t-51.5 8.5t-48 3.5t-45.5 0.5z" />
    <glyph glyph-name="four" unicode="4" horiz-adv-x="648" 
d="M41 226l383 478h49v-485h134v-40h-134v-179h-46v179h-386v47zM425 646l-338 -427h340v427h-2z" />
    <glyph glyph-name="five" unicode="5" horiz-adv-x="648" 
d="M73 335l78 369h407v-40h-371l-60 -271h2q77 77 206 77q119 0 190 -66t71 -172q0 -120 -75.5 -184t-201.5 -64q-113 0 -188 60.5t-79 168.5h46q16 -189 227 -189q106 0 165.5 53t59.5 153q0 81 -56 140.5t-169 59.5q-71 0 -125.5 -28.5t-80.5 -66.5h-46z" />
    <glyph glyph-name="six" unicode="6" horiz-adv-x="648" 
d="M584 536h-46q-7 74 -63.5 109t-135.5 35q-63 0 -108.5 -21.5t-70.5 -54.5t-40 -83.5t-19 -95t-4 -102.5h2q19 59 80 103t156 44q115 0 188.5 -64t73.5 -176q0 -107 -73 -176.5t-195 -69.5q-278 0 -278 341q0 70 6.5 124t26 107t51.5 87.5t85.5 55.5t126.5 21
q103 0 167.5 -50.5t69.5 -133.5zM338 430q-108 0 -168.5 -55.5t-60.5 -144.5q0 -25 5 -50t20.5 -54t39.5 -51t66 -36.5t96 -14.5q95 0 155 56t60 150q0 88 -56 144t-157 56z" />
    <glyph glyph-name="seven" unicode="7" horiz-adv-x="593" 
d="M38 664v40h517v-45q-155 -158 -230.5 -303t-105.5 -356h-52q62 406 342 662v2h-471z" />
    <glyph glyph-name="eight" unicode="8" horiz-adv-x="648" 
d="M88 192q0 -77 58.5 -122.5t177.5 -45.5q43 0 80.5 7.5t74.5 24.5t59 52t22 84q0 171 -236 171t-236 -171zM42 191q0 49 17 85.5t45.5 57.5t57 32t60.5 17v2q-80 18 -113 58.5t-33 102.5q0 49 22 85t59.5 54.5t78.5 26.5t88 8t88 -8t78.5 -26.5t59.5 -54.5t22 -85
q0 -62 -33 -102.5t-113 -58.5v-2q32 -6 60.5 -17t57 -32t45.5 -57.5t17 -85.5q0 -99 -72 -153t-210 -54t-210 54t-72 153zM122 538q0 -135 202 -135t202 137q0 40 -18 68.5t-49 43.5t-64 21.5t-71 6.5q-202 0 -202 -142z" />
    <glyph glyph-name="nine" unicode="9" horiz-adv-x="648" 
d="M64 168h46q7 -74 63.5 -109t135.5 -35q63 0 108.5 21.5t70.5 54.5t40 83.5t19 95t4 102.5h-2q-19 -59 -80 -103t-156 -44q-115 0 -188.5 64t-73.5 176q0 107 73 176.5t195 69.5q278 0 278 -341q0 -70 -6.5 -124t-26 -107t-51.5 -87.5t-85.5 -55.5t-126.5 -21
q-103 0 -167.5 50.5t-69.5 133.5zM310 274q108 0 168.5 55.5t60.5 144.5q0 25 -5 50t-20.5 54t-39.5 51t-66 36.5t-96 14.5q-95 0 -155 -56t-60 -150q0 -88 56 -144t157 -56z" />
    <glyph glyph-name="colon" unicode=":" horiz-adv-x="222" 
d="M85 395v100h52v-100h-52zM85 0v100h52v-100h-52z" />
    <glyph glyph-name="semicolon" unicode=";" horiz-adv-x="222" 
d="M85 0v100h52v-100q0 -102 -70 -130v34q36 16 36 81v15h-18zM85 395v100h52v-100h-52z" />
    <glyph glyph-name="less" unicode="&#x3c;" horiz-adv-x="600" 
d="M47 228v52l506 236v-40l-472 -223l472 -223v-40z" />
    <glyph glyph-name="equal" unicode="=" horiz-adv-x="600" 
d="M553 370v-40h-506v40h506zM553 176v-40h-506v40h506z" />
    <glyph glyph-name="greater" unicode="&#x3e;" horiz-adv-x="600" 
d="M47 -10v40l472 223l-472 223v40l506 -238v-52z" />
    <glyph glyph-name="question" unicode="?" horiz-adv-x="630" 
d="M326 184h-46v23q0 67 22.5 96.5t98.5 80.5q69 46 91.5 75.5t22.5 77.5q0 76 -59 114.5t-142 38.5q-217 0 -218 -196h-46q1 119 69.5 177.5t188.5 58.5q115 0 184 -48t69 -142q0 -61 -28.5 -100t-101.5 -86q-66 -43 -85.5 -66t-19.5 -71v-33zM277 0v100h52v-100h-52z" />
    <glyph glyph-name="at" unicode="@" horiz-adv-x="800" 
d="M336 166q45 0 87.5 46.5t66 107t23.5 109.5q0 117 -88 117q-53 0 -99 -44t-69.5 -103t-23.5 -112q0 -54 29.5 -87.5t73.5 -33.5zM543 493l23 67h46l-101 -309q-12 -38 -12 -49q0 -30 40 -30q69 0 131.5 71t62.5 175q0 118 -88 195t-223 77q-159 0 -257 -96t-98 -237
q0 -137 97.5 -235t233.5 -98q175 0 256 85h46q-97 -125 -300 -125q-155 0 -264 108.5t-109 264.5q0 157 110 265t281 108q158 0 256.5 -86.5t98.5 -215.5q0 -86 -40.5 -156t-95 -105t-105.5 -35q-32 0 -52 18t-21 53h-2q-25 -34 -61.5 -52.5t-73.5 -18.5q-55 0 -92 41.5
t-37 108.5q0 112 68.5 205t167.5 93q41 0 74 -24.5t38 -62.5h2z" />
    <glyph glyph-name="A" unicode="A" horiz-adv-x="686" 
d="M-11 0l328 714h52l328 -714h-52l-105 230h-394l-105 -230h-52zM343 662l-179 -392h358z" />
    <glyph glyph-name="B" unicode="B" horiz-adv-x="722" 
d="M106 674v-284h318q183 0 183 145q0 29 -7 51.5t-17 37t-27.5 24.5t-31.5 15t-37 7.5t-35.5 3t-34.5 0.5h-311zM106 350v-310h322q20 0 36 1t50 9.5t57 24t41.5 48t18.5 77.5q0 31 -8.5 55.5t-20 40t-32 26.5t-36.5 16.5t-41.5 8t-39 3t-37.5 0.5h-310zM60 0v714h385
q102 0 155 -45.5t53 -130.5q0 -134 -140 -164v-2q49 -5 83.5 -24t51 -47t23 -53t6.5 -52q0 -26 -5.5 -50.5t-22 -51.5t-42 -47.5t-69.5 -33.5t-100 -13h-378z" />
    <glyph glyph-name="C" unicode="C" horiz-adv-x="796" 
d="M714 271h46q-6 -52 -32 -102t-68.5 -92t-108 -67.5t-142.5 -25.5q-167 0 -273.5 100t-106.5 273q0 67 23 131.5t68 119.5t120 88.5t169 33.5q132 0 222.5 -61.5t116.5 -178.5h-46q-24 98 -105 149t-188 51q-149 0 -241.5 -97t-92.5 -236q0 -91 37 -165.5t114 -121
t183 -46.5q120 0 202.5 66t102.5 181z" />
    <glyph glyph-name="D" unicode="D" horiz-adv-x="759" 
d="M60 0v714h334q67 0 122 -17.5t101 -57t71.5 -111t25.5 -171.5q0 -163 -83.5 -260t-244.5 -97h-326zM106 674v-634h289q125 0 199 79t74 238q0 163 -75.5 240t-208.5 77h-278z" />
    <glyph glyph-name="E" unicode="E" horiz-adv-x="648" 
d="M60 0v714h564v-40h-518v-284h497v-40h-497v-310h524v-40h-570z" />
    <glyph glyph-name="F" unicode="F" horiz-adv-x="593" 
d="M60 0v714h518v-40h-472v-284h446v-40h-446v-350h-46z" />
    <glyph glyph-name="G" unicode="G" horiz-adv-x="833" 
d="M440 316v40h333v-356h-40v176h-2q-39 -93 -122.5 -142.5t-189.5 -49.5q-167 0 -273.5 100t-106.5 273q0 67 23 131.5t68 119.5t120 88.5t169 33.5q133 0 223 -63t116 -177h-46q-22 96 -102 148t-191 52q-149 0 -241.5 -97t-92.5 -236q0 -91 37 -165.5t114 -121t183 -46.5
q135 0 217.5 78t90.5 214h-287z" />
    <glyph glyph-name="H" unicode="H" horiz-adv-x="759" 
d="M60 0v714h46v-318h547v318h46v-714h-46v356h-547v-356h-46z" />
    <glyph glyph-name="I" unicode="I" 
d="M60 0v714h46v-714h-46z" />
    <glyph glyph-name="J" unicode="J" horiz-adv-x="537" 
d="M24 228h46v-17q0 -187 183 -187q178 0 178 187v503h46v-499q0 -115 -59 -173t-165 -58q-47 0 -85.5 11t-72 35.5t-52.5 70.5t-19 110v17z" />
    <glyph glyph-name="K" unicode="K" horiz-adv-x="704" 
d="M60 0v714h46v-410l514 410h73l-370 -295l396 -419h-64l-368 390l-181 -144v-246h-46z" />
    <glyph glyph-name="L" unicode="L" horiz-adv-x="574" 
d="M60 0v714h46v-674h468v-40h-514z" />
    <glyph glyph-name="M" unicode="M" horiz-adv-x="962" 
d="M65 0v714h69l347 -656l347 656h69v-714h-46v650h-2l-345 -650h-46l-345 650h-2v-650h-46z" />
    <glyph glyph-name="N" unicode="N" horiz-adv-x="759" 
d="M60 0v714h58l533 -650h2v650h46v-714h-58l-533 650h-2v-650h-46z" />
    <glyph glyph-name="O" unicode="O" horiz-adv-x="816" 
d="M75 357q0 -136 89.5 -234.5t243.5 -98.5t243.5 98.5t89.5 234.5t-89.5 234.5t-243.5 98.5t-243.5 -98.5t-89.5 -234.5zM29 357q0 45 11 92.5t39 99t69.5 91t109 65t150.5 25.5t150.5 -25.5t109 -65t69.5 -91t39 -99t11 -92.5t-11 -92.5t-39 -99t-69.5 -91t-109 -65
t-150.5 -25.5t-150.5 25.5t-109 65t-69.5 91t-39 99t-11 92.5z" />
    <glyph glyph-name="P" unicode="P" horiz-adv-x="667" 
d="M60 0v714h372q42 0 77 -8.5t68.5 -29t52.5 -61.5t19 -99q0 -94 -55.5 -148t-168.5 -54h-319v-314h-46zM106 674v-320h318q35 0 65 7.5t56.5 25t42 50t15.5 77.5q0 46 -15 78t-33 47.5t-49 24t-48.5 9.5t-44.5 1h-307z" />
    <glyph glyph-name="Q" unicode="Q" horiz-adv-x="816" 
d="M469 149l24 35l127 -91q59 49 90 118t31 146q0 136 -89.5 234.5t-243.5 98.5t-243.5 -98.5t-89.5 -234.5t89.5 -234.5t243.5 -98.5q99 0 175 45zM752 -51l-130 92q-88 -57 -214 -57q-83 0 -150.5 25.5t-109 65t-69.5 91t-39 99t-11 92.5t11 92.5t39 99t69.5 91t109 65
t150.5 25.5t150.5 -25.5t109 -65t69.5 -91t39 -99t11 -92.5q0 -74 -32 -154t-98 -135l119 -84z" />
    <glyph glyph-name="R" unicode="R" horiz-adv-x="704" 
d="M60 0v714h365q114 0 177.5 -42t63.5 -147q0 -60 -37.5 -110.5t-108.5 -66.5v-2q64 -8 98.5 -48.5t35.5 -99.5q2 -98 6 -138.5t14 -59.5h-46q-16 15 -20 166q-2 93 -40 126t-144 33h-318v-325h-46zM106 674v-309h311q203 0 203 163q0 146 -191 146h-323z" />
    <glyph glyph-name="S" unicode="S" horiz-adv-x="667" 
d="M28 236h46q2 -212 274 -212q123 0 181 45t58 114q0 61 -39 92.5t-149 54.5l-133 28q-119 25 -167.5 66t-48.5 121q0 83 70.5 134t199.5 51q140 0 217.5 -53.5t81.5 -164.5h-46q-13 178 -240 178q-231 0 -231 -146q0 -59 35 -90t134 -51l147 -29q114 -22 167.5 -64
t53.5 -124q0 -39 -14 -73t-45 -64t-89.5 -47.5t-138.5 -17.5q-324 0 -324 252z" />
    <glyph glyph-name="T" unicode="T" horiz-adv-x="592" 
d="M-15 674v40h622v-40h-288v-674h-46v674h-288z" />
    <glyph glyph-name="U" unicode="U" horiz-adv-x="740" 
d="M54 264v450h46v-448q0 -120 63 -181t207 -61t207 61t63 181v448h46v-450q0 -280 -316 -280t-316 280z" />
    <glyph glyph-name="V" unicode="V" horiz-adv-x="668" 
d="M308 0l-317 714h52l291 -656l291 656h52l-317 -714h-52z" />
    <glyph glyph-name="W" unicode="W" horiz-adv-x="1018" 
d="M220 0l-235 714h52l212 -650h2l229 650h58l229 -650h2l212 650h52l-235 -714h-58l-230 650h-2l-230 -650h-58z" />
    <glyph glyph-name="X" unicode="X" horiz-adv-x="648" 
d="M-9 0l303 363l-292 351h62l260 -315l265 315h58l-292 -351l302 -363h-61l-272 328l-275 -328h-58z" />
    <glyph glyph-name="Y" unicode="Y" horiz-adv-x="668" 
d="M311 300l-331 414h64l290 -371l296 371h58l-331 -414v-300h-46v300z" />
    <glyph glyph-name="Z" unicode="Z" horiz-adv-x="611" 
d="M-5 0v49l561 625h-528v40h580v-46l-561 -628h569v-40h-621z" />
    <glyph glyph-name="bracketleft" unicode="[" horiz-adv-x="296" 
d="M96 -190v904h166v-40h-120v-824h120v-40h-166z" />
    <glyph glyph-name="backslash" unicode="\" horiz-adv-x="407" 
d="M372 -16l-383 746h46l383 -746h-46z" />
    <glyph glyph-name="bracketright" unicode="]" horiz-adv-x="296" 
d="M154 -150v824h-120v40h166v-904h-166v40h120z" />
    <glyph glyph-name="asciicircum" unicode="^" horiz-adv-x="600" 
d="M39 251l236 453h52l234 -453h-40l-221 419l-221 -419h-40z" />
    <glyph glyph-name="underscore" unicode="_" horiz-adv-x="500" 
d="M500 -125h-500v50h500v-50z" />
    <glyph glyph-name="grave" unicode="`" 
d="M103 593l-157 142h58l144 -142h-45z" />
    <glyph glyph-name="a" unicode="a" horiz-adv-x="593" 
d="M476 192v94h-2q-21 -23 -82 -27l-173 -12q-71 -5 -109 -29t-38 -78q0 -116 167 -116q56 0 107.5 15.5t90.5 55.5t39 97zM95 354h-46q13 96 67 135t171 39q118 0 176.5 -33.5t58.5 -116.5v-287q0 -24 1 -34t9 -18.5t24 -8.5q21 0 45 8v-40q-22 -8 -56 -8q-18 0 -30.5 6
t-19 13.5t-9.5 24.5t-3.5 29.5t-0.5 38.5h-2q-64 -118 -244 -118q-210 0 -210 156q0 136 193 147l179 12q45 3 61.5 16t16.5 57q0 57 -42 86.5t-148 29.5q-98 0 -139 -31t-52 -103z" />
    <glyph glyph-name="b" unicode="b" horiz-adv-x="630" 
d="M56 0v714h46v-311h2q27 51 84 88t143 37q118 0 195.5 -75t77.5 -196q0 -115 -72 -194t-201 -79q-91 0 -148.5 37.5t-78.5 90.5h-2v-112h-46zM336 24q98 0 160 63t62 171q0 111 -66.5 170.5t-161.5 59.5q-42 0 -81 -12.5t-74.5 -38t-57 -74t-21.5 -112.5q0 -30 6.5 -59
t23 -60t42.5 -54.5t69.5 -38.5t98.5 -15z" />
    <glyph glyph-name="c" unicode="c" horiz-adv-x="611" 
d="M578 351h-46q-5 52 -67 94.5t-150 42.5q-115 0 -179 -69.5t-64 -167.5q0 -34 12.5 -71t39 -73t76.5 -59.5t115 -23.5q82 0 145 39.5t79 115.5h46q-19 -96 -93.5 -145.5t-176.5 -49.5q-127 0 -208 74t-81 193q0 130 83 203.5t206 73.5q112 0 185 -53.5t78 -123.5z" />
    <glyph glyph-name="d" unicode="d" horiz-adv-x="630" 
d="M528 0v112h-2q-21 -53 -78.5 -90.5t-148.5 -37.5q-129 0 -201 79t-72 194q0 121 77.5 196t195.5 75q86 0 143 -37t84 -88h2v311h46v-714h-46zM294 24q55 0 98.5 15t69.5 38.5t42.5 54.5t23 60t6.5 59q0 64 -21.5 112.5t-57 74t-74.5 38t-81 12.5q-95 0 -161.5 -59.5
t-66.5 -170.5q0 -108 62 -171t160 -63z" />
    <glyph glyph-name="e" unicode="e" horiz-adv-x="611" 
d="M594 246h-522q2 -99 66.5 -160.5t177.5 -61.5q56 0 97.5 15t65.5 42t34.5 45t20.5 44h46q-62 -186 -269 -186q-131 0 -208 74.5t-77 201.5q0 34 8.5 69t29.5 71.5t52.5 64t82 45.5t113.5 18q131 0 205.5 -78t76.5 -204zM72 286h470q-14 101 -78 151.5t-157 50.5
q-97 0 -158.5 -54.5t-76.5 -147.5z" />
    <glyph glyph-name="f" unicode="f" horiz-adv-x="296" 
d="M110 0v472h-120v40h120v77q0 66 27.5 98.5t102.5 32.5q21 0 79 -6v-40q-33 6 -73 6q-90 0 -90 -77v-91h148v-40h-148v-472h-46z" />
    <glyph glyph-name="g" unicode="g" horiz-adv-x="648" 
d="M305 488q-98 0 -165.5 -55.5t-67.5 -160.5q0 -109 62 -167.5t176 -58.5q105 0 170.5 57.5t65.5 169.5q0 101 -64 158t-177 57zM546 408v104h46v-487q0 -49 -11 -88.5t-39 -77t-86.5 -58.5t-143.5 -21q-123 0 -188 40t-77 132h46q9 -64 60 -98t159 -34q57 0 100.5 12.5
t68 31.5t40 47t20.5 54t5 58v106h-2q-65 -123 -240 -123q-140 0 -209 75.5t-69 188.5q0 109 70.5 183.5t208.5 74.5q177 0 239 -119z" />
    <glyph glyph-name="h" unicode="h" horiz-adv-x="611" 
d="M56 0v714h46v-304h2q27 52 81 85t135 33q48 0 86.5 -9t63 -21.5t41.5 -33.5t25.5 -38t13 -41.5t5 -36.5t0.5 -32v-316h-46v314q0 85 -41.5 129.5t-148.5 44.5q-106 0 -161.5 -55.5t-55.5 -133.5v-299h-46z" />
    <glyph glyph-name="i" unicode="i" 
d="M60 0v512h46v-512h-46zM60 608v106h46v-106h-46z" />
    <glyph glyph-name="j" unicode="j" 
d="M106 512v-604q0 -128 -132 -128q-32 0 -62 6v40q28 -6 62 -6q25 0 42 7.5t25.5 16.5t13 29.5t5 33.5t0.5 41v564h46zM60 608v106h46v-106h-46z" />
    <glyph glyph-name="k" unicode="k" horiz-adv-x="556" 
d="M56 0v714h46v-474l365 272h68l-259 -193l283 -319h-63l-256 290l-138 -102v-188h-46z" />
    <glyph glyph-name="l" unicode="l" 
d="M60 0v714h46v-714h-46z" />
    <glyph glyph-name="m" unicode="m" horiz-adv-x="964" 
d="M56 0v512h46v-87h2q30 49 82.5 76t114.5 27q157 0 196 -119q56 119 198 119q213 0 213 -181v-347h-46v332q0 69 -40.5 112.5t-125.5 43.5q-93 0 -142 -45.5t-49 -127.5v-315h-46v341q0 147 -166 147q-86 0 -138.5 -48t-52.5 -135v-305h-46z" />
    <glyph glyph-name="n" unicode="n" horiz-adv-x="611" 
d="M56 0v512h46v-102h2q27 52 81 85t135 33q48 0 86.5 -9t63 -21.5t41.5 -33.5t25.5 -38t13 -41.5t5 -36.5t0.5 -32v-316h-46v314q0 85 -41.5 129.5t-148.5 44.5q-106 0 -161.5 -55.5t-55.5 -133.5v-299h-46z" />
    <glyph glyph-name="o" unicode="o" horiz-adv-x="630" 
d="M72 256q0 -95 64 -163.5t179 -68.5t179 68.5t64 163.5t-64 163.5t-179 68.5t-179 -68.5t-64 -163.5zM26 256q0 113 78.5 192.5t210.5 79.5t210.5 -79.5t78.5 -192.5t-78.5 -192.5t-210.5 -79.5t-210.5 79.5t-78.5 192.5z" />
    <glyph glyph-name="p" unicode="p" horiz-adv-x="630" 
d="M56 -202v714h46v-112h2q21 53 78.5 90.5t148.5 37.5q129 0 201 -79t72 -194q0 -121 -77.5 -196t-195.5 -75q-86 0 -143 37t-84 88h-2v-311h-46zM336 488q-55 0 -98.5 -15t-69.5 -38.5t-42.5 -54.5t-23 -60t-6.5 -59q0 -64 21.5 -112.5t57 -74t74.5 -38t81 -12.5
q95 0 161.5 59.5t66.5 170.5q0 108 -62 171t-160 63z" />
    <glyph glyph-name="q" unicode="q" horiz-adv-x="630" 
d="M528 -202v311h-2q-27 -51 -84 -88t-143 -37q-118 0 -195.5 75t-77.5 196q0 115 72 194t201 79q91 0 148.5 -37.5t78.5 -90.5h2v112h46v-714h-46zM294 488q-98 0 -160 -63t-62 -171q0 -111 66.5 -170.5t161.5 -59.5q42 0 81 12.5t74.5 38t57 74t21.5 112.5q0 30 -6.5 59
t-23 60t-42.5 54.5t-69.5 38.5t-98.5 15z" />
    <glyph glyph-name="r" unicode="r" horiz-adv-x="352" 
d="M56 0v512h46v-121h2q25 67 80.5 102t131.5 35q17 0 38 -6v-46q-16 6 -53 6q-94 0 -146.5 -60.5t-52.5 -144.5v-277h-46z" />
    <glyph glyph-name="s" unicode="s" horiz-adv-x="537" 
d="M496 362h-46q-5 65 -50.5 95.5t-143.5 30.5q-88 0 -127.5 -28.5t-39.5 -73.5q0 -73 103 -87l163 -22q78 -11 119.5 -43t41.5 -97q0 -153 -245 -153q-240 0 -250 176h46q2 -22 5 -35t16 -35t34.5 -34t62.5 -22t98 -10q99 0 143 28.5t44 84.5q0 79 -103 93l-180 24
q-59 7 -101.5 37.5t-42.5 91.5q0 24 9.5 47.5t32 46.5t67 37t106.5 14q226 0 238 -166z" />
    <glyph glyph-name="t" unicode="t" horiz-adv-x="315" 
d="M106 512v173h46v-173h152v-40h-152v-369q0 -44 22.5 -58.5t70.5 -14.5q1 0 64 6v-40q-29 -6 -78 -6q-77 0 -101 30t-24 108v344h-116v40h116z" />
    <glyph glyph-name="u" unicode="u" horiz-adv-x="611" 
d="M555 512v-512h-46v102h-2q-27 -52 -81 -85t-135 -33q-48 0 -86.5 9t-63 21.5t-41.5 33.5t-25.5 38t-13 41.5t-5 36.5t-0.5 32v316h46v-314q0 -85 41.5 -129.5t148.5 -44.5q106 0 161.5 55.5t55.5 133.5v299h46z" />
    <glyph glyph-name="v" unicode="v" horiz-adv-x="556" 
d="M255 0l-253 512h52l224 -466l224 466h52l-253 -512h-46z" />
    <glyph glyph-name="w" unicode="w" horiz-adv-x="870" 
d="M231 58l175 454h58l181 -454l179 454h52l-209 -512h-52l-180 460l-180 -460h-52l-209 512h52z" />
    <glyph glyph-name="x" unicode="x" horiz-adv-x="537" 
d="M-11 0l248 267l-227 245h64l195 -211l196 211h58l-225 -242l250 -270h-64l-218 235l-219 -235h-58z" />
    <glyph glyph-name="y" unicode="y" horiz-adv-x="519" 
d="M246 0l-259 512h52l230 -461l211 461h52l-282 -602q-23 -48 -50 -71t-82 -23h-64v40h55q44 0 62.5 16t48.5 76z" />
    <glyph glyph-name="z" unicode="z" horiz-adv-x="519" 
d="M12 0v46l417 426h-391v40h455v-34l-429 -438h443v-40h-495z" />
    <glyph glyph-name="braceleft" unicode="{" horiz-adv-x="296" 
d="M53 242v40q72 4 72 162v152q0 65 22 91.5t66 26.5h58v-40h-48q-32 0 -42 -17t-10 -79v-151q0 -132 -72 -165q72 -33 72 -165v-151q0 -62 10 -79t42 -17h48v-40h-58q-44 0 -66 26.5t-22 91.5v152q0 158 -72 162z" />
    <glyph glyph-name="bar" unicode="|" horiz-adv-x="222" 
d="M91 -16v746h40v-746h-40z" />
    <glyph glyph-name="braceright" unicode="}" horiz-adv-x="296" 
d="M125 -54v151q0 132 72 165q-72 33 -72 165v151q0 62 -10 79t-42 17h-48v40h58q44 0 66 -26.5t22 -91.5v-152q0 -158 72 -162v-40q-72 -4 -72 -162v-152q0 -65 -22 -91.5t-66 -26.5h-58v40h48q32 0 42 17t10 79z" />
    <glyph glyph-name="asciitilde" unicode="~" horiz-adv-x="600" 
d="M101 192l-29 32q26 43 52.5 63t69.5 20q39 0 111 -32q6 -3 21.5 -11t25 -12.5t25 -8.5t30.5 -4q27 0 52 23t40 52l29 -30q-57 -85 -122 -85q-40 0 -114 38q-60 30 -92 30q-66 0 -99 -75z" />
    <glyph glyph-name="uni00A0" unicode="&#xa0;" horiz-adv-x="222" 
 />
    <glyph glyph-name="exclamdown" unicode="&#xa1;" horiz-adv-x="258" 
d="M103 -202v191q0 64 4 181t5 158h34q1 -41 5 -158t4 -181v-191h-52zM103 412v100h52v-100h-52z" />
    <glyph glyph-name="cent" unicode="&#xa2;" horiz-adv-x="648" 
d="M310 25v462q-104 -7 -161.5 -75.5t-57.5 -160.5q0 -26 6.5 -53.5t23 -57.5t40.5 -54t62.5 -41t86.5 -20zM310 -125v110q-117 7 -191 80t-74 186q0 124 75 197t190 79v93h34v-92q108 -2 178 -55.5t75 -121.5h-46q-5 50 -64 92.5t-143 44.5v-464q82 0 139.5 40t73.5 115h46
q-19 -94 -90 -144.5t-169 -50.5v-109h-34z" />
    <glyph glyph-name="sterling" unicode="&#xa3;" horiz-adv-x="648" 
d="M55 322v34h75q-59 102 -59 173q0 19 4.5 39.5t20.5 49t42 50t75 37t113 15.5q78 0 133 -19.5t83 -55.5t39.5 -76t11.5 -91h-46q0 110 -58 156t-164 46q-84 0 -146 -36.5t-62 -114.5q0 -54 65 -173h227v-34h-213q19 -49 19 -82q0 -110 -119 -206l2 -2q64 36 132 36
q35 0 105 -22t98 -22q85 0 154 81l21 -38q-79 -83 -175 -83q-41 0 -111 22t-105 22q-45 0 -71 -8t-80 -36l-26 39q66 58 97.5 105.5t31.5 104.5q0 49 -25 89h-89z" />
    <glyph glyph-name="currency" unicode="&#xa4;" horiz-adv-x="648" 
d="M566 138l-27 -28l-54 55q-70 -61 -161 -61q-93 0 -161 61l-55 -55l-28 26l57 55q-59 70 -61 161q0 93 61 161l-57 56l28 26l55 -55q69 58 161 60q91 0 161 -61l54 56l27 -28l-55 -54q61 -68 61 -161t-61 -160zM122 352q0 -84 59 -143t143 -59t143 59t59 143t-59 143
t-143 59t-143 -59t-59 -143z" />
    <glyph glyph-name="yen" unicode="&#xa5;" horiz-adv-x="648" 
d="M301 0v170h-211v34h211v96l-12 16h-199v34h173l-273 354h64l265 -354h10l271 354h58l-273 -354h173v-34h-199l-12 -16v-96h211v-34h-211v-170h-46z" />
    <glyph glyph-name="brokenbar" unicode="&#xa6;" horiz-adv-x="222" 
d="M91 -16v270h40v-270h-40zM91 460v270h40v-270h-40z" />
    <glyph glyph-name="section" unicode="&#xa7;" horiz-adv-x="648" 
d="M530 549h-46q0 12 -0.5 20t-3.5 24.5t-9 27.5t-18.5 25t-29.5 23t-44.5 15t-62.5 6q-28 0 -47 -2t-49.5 -10.5t-47.5 -31.5t-17 -59q0 -51 73 -86l266 -123q110 -52 110 -133q0 -39 -16 -68.5t-40.5 -45t-42.5 -22.5t-34 -10q20 -15 29 -22.5t22.5 -33t13.5 -57.5
q0 -148 -218 -148t-218 188h46q0 -148 174 -148q170 0 170 101q0 23 -7.5 40.5t-25.5 32t-32 22t-43 21.5l-204 95q-77 36 -105.5 70.5t-28.5 80.5q0 104 131 141q-20 13 -31 22.5t-23 32.5t-12 53q0 66 54 103t142 37q110 0 167.5 -42t57.5 -139zM461 343l-253 117
q-29 0 -73.5 -31t-44.5 -82q0 -24 7 -41.5t25 -31.5t33 -22t45 -22l236 -109q2 -1 14 1.5t30.5 9.5t35.5 18.5t29.5 33t12.5 48.5q0 23 -8.5 41.5t-25.5 32t-29.5 20.5t-33.5 17z" />
    <glyph glyph-name="dieresis" unicode="&#xa8;" 
d="M-46 598v106h46v-106h-46zM166 598v106h46v-106h-46z" />
    <glyph glyph-name="copyright" unicode="&#xa9;" horiz-adv-x="800" 
d="M67 357q0 -138 97.5 -235.5t235.5 -97.5t235.5 97.5t97.5 235.5t-97.5 235.5t-235.5 97.5t-235.5 -97.5t-97.5 -235.5zM602 438h-40q-11 56 -50.5 88.5t-99.5 32.5q-87 0 -136.5 -56t-49.5 -145q0 -86 51.5 -145t134.5 -59q60 0 99.5 33.5t50.5 93.5h40
q-10 -72 -63.5 -116.5t-126.5 -44.5q-101 0 -163.5 67.5t-62.5 170.5q0 104 61 169.5t165 65.5q74 0 126.5 -41.5t63.5 -113.5zM27 357q0 155 109.5 264t263.5 109t263.5 -109t109.5 -264t-109.5 -264t-263.5 -109t-263.5 109t-109.5 264z" />
    <glyph glyph-name="ordfeminine" unicode="&#xaa;" horiz-adv-x="385" 
d="M306 521v53q-18 -15 -56 -17l-113 -8q-86 -6 -86 -64q0 -67 105 -67q55 0 102.5 26t47.5 77zM340 633v-164q0 -15 1 -21.5t6 -12t15 -5.5q9 0 29 4v-28q-15 -2 -40 -4q-16 0 -26 4t-13.5 14.5t-4.5 18.5t-1 25h-2q-40 -74 -150 -74q-137 0 -137 97q0 81 123 90l112 8
q54 4 54 36q0 15 -3.5 25.5t-14 22t-35 17.5t-62.5 6q-125 0 -125 -77h-34q0 55 42 80t107 25q35 0 60 -3t49 -11.5t37 -27t13 -45.5z" />
    <glyph glyph-name="guillemotleft" unicode="&#xab;" horiz-adv-x="444" 
d="M255 270l102 -104v-54l-136 135v46l136 135v-54zM107 270l102 -104v-54l-136 135v46l136 135v-54z" />
    <glyph glyph-name="logicalnot" unicode="&#xac;" horiz-adv-x="600" 
d="M513 108v222h-466v40h506v-262h-40z" />
    <glyph glyph-name="uni00AD" unicode="&#xad;" horiz-adv-x="407" 
d="M75 247v46h257v-46h-257z" />
    <glyph glyph-name="registered" unicode="&#xae;" horiz-adv-x="800" 
d="M256 136v442h170q71 0 107.5 -27t36.5 -95q0 -55 -29 -82t-84 -36l133 -202h-46l-133 202h-115v-202h-40zM296 544v-172h94q72 0 106 15.5t34 68.5q0 88 -104 88h-130zM67 357q0 -138 97.5 -235.5t235.5 -97.5t235.5 97.5t97.5 235.5t-97.5 235.5t-235.5 97.5
t-235.5 -97.5t-97.5 -235.5zM27 357q0 155 109.5 264t263.5 109t263.5 -109t109.5 -264t-109.5 -264t-263.5 -109t-263.5 109t-109.5 264z" />
    <glyph glyph-name="macron" unicode="&#xaf;" 
d="M-108 640v34h382v-34h-382z" />
    <glyph glyph-name="degree" unicode="&#xb0;" horiz-adv-x="400" 
d="M55 575q0 60 42.5 102.5t102.5 42.5t102.5 -42.5t42.5 -102.5t-42.5 -102.5t-102.5 -42.5t-102.5 42.5t-42.5 102.5zM89 575q0 -46 32.5 -78.5t78.5 -32.5t78.5 32.5t32.5 78.5t-32.5 78.5t-78.5 32.5t-78.5 -32.5t-32.5 -78.5z" />
    <glyph glyph-name="plusminus" unicode="&#xb1;" horiz-adv-x="600" 
d="M47 278v40h233v188h40v-188h233v-40h-233v-188h-40v188h-233zM47 0v40h506v-40h-506z" />
    <glyph glyph-name="twosuperior" unicode="&#xb2;" horiz-adv-x="421" 
d="M383 322v-28h-345q8 60 37.5 89t110.5 71q10 5 30 15.5t28 14.5t23.5 13t21.5 14t16.5 13.5t14.5 15t9.5 16t7 20t1.5 22.5q0 48 -36 71t-86 23q-69 0 -102.5 -32t-33.5 -89h-34q0 149 170 149q66 0 111 -29.5t45 -92.5q0 -30 -9.5 -52.5t-35 -42.5t-49 -33.5
t-71.5 -37.5q-62 -32 -93.5 -55t-41.5 -55h311z" />
    <glyph glyph-name="threesuperior" unicode="&#xb3;" horiz-adv-x="421" 
d="M187 500v28q23 0 37.5 0.5t39.5 5t39.5 12t26 24t11.5 39.5q0 45 -36 64t-86 19q-61 0 -99.5 -27.5t-38.5 -86.5h-34q4 142 178 142q59 0 104.5 -26t45.5 -85q0 -81 -101 -92v-2q49 0 81 -30t32 -82q0 -37 -15.5 -63.5t-42.5 -40t-56 -19.5t-64 -6q-80 0 -127.5 36.5
t-47.5 117.5h34q0 -126 148 -126q55 0 96 24.5t41 77.5q0 27 -12 46t-27.5 28.5t-41 14.5t-43 6t-42.5 1z" />
    <glyph glyph-name="acute" unicode="&#xb4;" 
d="M162 735h58l-157 -142h-45z" />
    <glyph glyph-name="mu" unicode="&#xb5;" horiz-adv-x="611" 
d="M555 512v-512h-46v102h-2q-27 -52 -81 -85t-135 -33q-133 0 -187 80h-2v-266h-46v714h46v-314q0 -85 41.5 -129.5t148.5 -44.5q106 0 161.5 55.5t55.5 133.5v299h46z" />
    <glyph glyph-name="paragraph" unicode="&#xb6;" horiz-adv-x="600" 
d="M258 -146v470q-87 0 -147 57t-60 137q0 95 58.5 145.5t164.5 50.5h217v-860h-40v820h-153v-820h-40z" />
    <glyph glyph-name="periodcentered" unicode="&#xb7;" horiz-adv-x="222" 
d="M55 320q0 23 16.5 39.5t39.5 16.5t39.5 -16.5t16.5 -39.5t-16.5 -39.5t-39.5 -16.5t-39.5 16.5t-16.5 39.5z" />
    <glyph glyph-name="cedilla" unicode="&#xb8;" 
d="M17 -76l63 76h34l-51 -55l2 -2q29 6 44 6q33 0 59 -16.5t26 -46.5q0 -39 -33.5 -57.5t-77.5 -18.5q-49 0 -111 18l10 28q48 -18 90 -18q82 0 82 45q0 38 -61 38q-31 0 -59 -12z" />
    <glyph glyph-name="onesuperior" unicode="&#xb9;" horiz-adv-x="388" 
d="M201 286v369q-55 -46 -145 -55v28q40 2 86.5 24.5t61.5 55.5h31v-422h-34z" />
    <glyph glyph-name="ordmasculine" unicode="&#xba;" horiz-adv-x="410" 
d="M51 555q0 -55 41 -96t113 -41t113 41t41 96t-41 96t-113 41t-113 -41t-41 -96zM17 555q0 77 54 121t134 44t134 -44t54 -121t-54 -121t-134 -44t-134 44t-54 121z" />
    <glyph glyph-name="guillemotright" unicode="&#xbb;" horiz-adv-x="444" 
d="M337 270l-102 104v54l136 -135v-46l-136 -135v54zM189 270l-102 104v54l136 -135v-46l-136 -135v54z" />
    <glyph glyph-name="onequarter" unicode="&#xbc;" horiz-adv-x="972" 
d="M554 142l245 280h34v-285h89v-28h-89v-109h-34v109h-245v33zM799 137v245l-211 -245h211zM176 286v369q-55 -46 -145 -55v28q40 2 86.5 24.5t61.5 55.5h31v-422h-34zM203 -16l457 736h40l-457 -736h-40z" />
    <glyph glyph-name="onehalf" unicode="&#xbd;" horiz-adv-x="972" 
d="M203 -16l457 736h40l-457 -736h-40zM176 286v369q-55 -46 -145 -55v28q40 2 86.5 24.5t61.5 55.5h31v-422h-34zM909 28v-28h-345q8 60 37.5 89t110.5 71q10 5 30 15.5t28 14.5t23.5 13t21.5 14t16.5 13.5t14.5 15t9.5 16t7 20t1.5 22.5q0 48 -36 71t-86 23
q-69 0 -102.5 -32t-33.5 -89h-34q0 149 170 149q66 0 111 -29.5t45 -92.5q0 -30 -9.5 -52.5t-35 -42.5t-49 -33.5t-71.5 -37.5q-62 -32 -93.5 -55t-41.5 -55h311z" />
    <glyph glyph-name="threequarters" unicode="&#xbe;" horiz-adv-x="972" 
d="M554 142l245 282h34v-287h89v-28h-89v-109h-34v109h-245v33zM799 137v247l-211 -247h211zM273 -16l457 736h40l-457 -736h-40zM207 500v28q23 0 37.5 0.5t39.5 5t39.5 12t26 24t11.5 39.5q0 45 -36 64t-86 19q-61 0 -99.5 -27.5t-38.5 -86.5h-34q4 142 178 142
q59 0 104.5 -26t45.5 -85q0 -81 -101 -92v-2q49 0 81 -30t32 -82q0 -37 -15.5 -63.5t-42.5 -40t-56 -19.5t-64 -6q-80 0 -127.5 36.5t-47.5 117.5h34q0 -126 148 -126q55 0 96 24.5t41 77.5q0 27 -12 46t-27.5 28.5t-41 14.5t-43 6t-42.5 1z" />
    <glyph glyph-name="questiondown" unicode="&#xbf;" horiz-adv-x="630" 
d="M304 328h46v-23q0 -67 -22.5 -96.5t-98.5 -80.5q-69 -46 -91.5 -75.5t-22.5 -77.5q0 -76 59 -114.5t142 -38.5q217 0 218 196h46q-1 -119 -69.5 -177.5t-188.5 -58.5q-115 0 -184 48t-69 142q0 61 28.5 100t101.5 86q66 43 85.5 66t19.5 71v33zM353 512v-100h-52v100h52z
" />
    <glyph glyph-name="Agrave" unicode="&#xc0;" horiz-adv-x="686" 
d="M-11 0l328 714h52l328 -714h-52l-105 230h-394l-105 -230h-52zM343 662l-179 -392h358zM363 755l-157 142h58l144 -142h-45z" />
    <glyph glyph-name="Aacute" unicode="&#xc1;" horiz-adv-x="686" 
d="M-11 0l328 714h52l328 -714h-52l-105 230h-394l-105 -230h-52zM343 662l-179 -392h358zM422 897h58l-157 -142h-45z" />
    <glyph glyph-name="Acircumflex" unicode="&#xc2;" horiz-adv-x="686" 
d="M-11 0l328 714h52l328 -714h-52l-105 230h-394l-105 -230h-52zM343 662l-179 -392h358zM526 755h-53l-130 114l-130 -114h-53l155 142h56z" />
    <glyph glyph-name="Atilde" unicode="&#xc3;" horiz-adv-x="686" 
d="M-11 0l328 714h52l328 -714h-52l-105 230h-394l-105 -230h-52zM343 662l-179 -392h358zM203 778h-34q5 36 29 60q26 28 65 28q35 0 87 -27q56 -27 78 -27q44 0 55 54h34q-5 -36 -27 -61q-24 -27 -59 -27t-91 27q-52 27 -80 27q-23 0 -39 -16t-18 -38z" />
    <glyph glyph-name="Adieresis" unicode="&#xc4;" horiz-adv-x="686" 
d="M-11 0l328 714h52l328 -714h-52l-105 230h-394l-105 -230h-52zM343 662l-179 -392h358zM214 760v106h46v-106h-46zM426 760v106h46v-106h-46z" />
    <glyph glyph-name="Aring" unicode="&#xc5;" horiz-adv-x="686" 
d="M-11 0l328 714h52l328 -714h-52l-105 230h-394l-105 -230h-52zM343 662l-179 -392h358zM233 840q0 46 32 78t78 32t78 -32t32 -78t-32 -78t-78 -32t-78 32t-32 78zM267 840q0 -32 22.5 -54t53.5 -22t53.5 22t22.5 54t-22.5 54t-53.5 22t-53.5 -22t-22.5 -54z" />
    <glyph glyph-name="AE" unicode="&#xc6;" horiz-adv-x="1056" 
d="M-33 0l464 714h601v-40h-472v-284h451v-40h-451v-310h478v-40h-524v257h-326l-166 -257h-55zM457 674l-243 -377h300v377h-57z" />
    <glyph glyph-name="Ccedilla" unicode="&#xc7;" horiz-adv-x="796" 
d="M714 271h46q-6 -52 -31.5 -101.5t-67.5 -91t-106.5 -67.5t-140.5 -27l-36 -39l2 -2q28 6 44 6q33 0 59 -16.5t26 -46.5q0 -39 -33.5 -57.5t-77.5 -18.5q-49 0 -111 18l10 28q48 -18 90 -18q82 0 82 45q0 38 -61 38q-31 0 -59 -12l-17 15l51 61q-157 8 -255.5 107
t-98.5 265q0 67 23 131.5t68 119.5t120 88.5t169 33.5q132 0 222.5 -61.5t116.5 -178.5h-46q-24 98 -105 149t-188 51q-149 0 -241.5 -97t-92.5 -236q0 -91 37 -165.5t114 -121t183 -46.5q120 0 202.5 66t102.5 181z" />
    <glyph glyph-name="Egrave" unicode="&#xc8;" horiz-adv-x="648" 
d="M60 0v714h564v-40h-518v-284h497v-40h-497v-310h524v-40h-570zM344 755l-157 142h58l144 -142h-45z" />
    <glyph glyph-name="Eacute" unicode="&#xc9;" horiz-adv-x="648" 
d="M60 0v714h564v-40h-518v-284h497v-40h-497v-310h524v-40h-570zM403 897h58l-157 -142h-45z" />
    <glyph glyph-name="Ecircumflex" unicode="&#xca;" horiz-adv-x="648" 
d="M60 0v714h564v-40h-518v-284h497v-40h-497v-310h524v-40h-570zM507 755h-53l-130 114l-130 -114h-53l155 142h56z" />
    <glyph glyph-name="Edieresis" unicode="&#xcb;" horiz-adv-x="648" 
d="M60 0v714h564v-40h-518v-284h497v-40h-497v-310h524v-40h-570zM195 760v106h46v-106h-46zM407 760v106h46v-106h-46z" />
    <glyph glyph-name="Igrave" unicode="&#xcc;" 
d="M60 0v714h46v-714h-46zM103 755l-157 142h58l144 -142h-45z" />
    <glyph glyph-name="Iacute" unicode="&#xcd;" 
d="M60 0v714h46v-714h-46zM162 897h58l-157 -142h-45z" />
    <glyph glyph-name="Icircumflex" unicode="&#xce;" 
d="M60 0v714h46v-714h-46zM266 755h-53l-130 114l-130 -114h-53l155 142h56z" />
    <glyph glyph-name="Idieresis" unicode="&#xcf;" 
d="M60 0v714h46v-714h-46zM-46 760v106h46v-106h-46zM166 760v106h46v-106h-46z" />
    <glyph glyph-name="Eth" unicode="&#xd0;" horiz-adv-x="759" 
d="M60 0v350h-60v40h60v324h334q67 0 122 -17.5t101 -57t71.5 -111t25.5 -171.5q0 -163 -83.5 -260t-244.5 -97h-326zM106 674v-284h266v-40h-266v-310h289q125 0 199 79t74 238q0 163 -75.5 240t-208.5 77h-278z" />
    <glyph glyph-name="Ntilde" unicode="&#xd1;" horiz-adv-x="759" 
d="M60 0v714h58l533 -650h2v650h46v-714h-58l-533 650h-2v-650h-46zM240 778h-34q5 36 29 60q26 28 65 28q35 0 87 -27q56 -27 78 -27q44 0 55 54h34q-5 -36 -27 -61q-24 -27 -59 -27t-91 27q-52 27 -80 27q-23 0 -39 -16t-18 -38z" />
    <glyph glyph-name="Ograve" unicode="&#xd2;" horiz-adv-x="816" 
d="M75 357q0 -136 89.5 -234.5t243.5 -98.5t243.5 98.5t89.5 234.5t-89.5 234.5t-243.5 98.5t-243.5 -98.5t-89.5 -234.5zM29 357q0 45 11 92.5t39 99t69.5 91t109 65t150.5 25.5t150.5 -25.5t109 -65t69.5 -91t39 -99t11 -92.5t-11 -92.5t-39 -99t-69.5 -91t-109 -65
t-150.5 -25.5t-150.5 25.5t-109 65t-69.5 91t-39 99t-11 92.5zM428 755l-157 142h58l144 -142h-45z" />
    <glyph glyph-name="Oacute" unicode="&#xd3;" horiz-adv-x="816" 
d="M75 357q0 -136 89.5 -234.5t243.5 -98.5t243.5 98.5t89.5 234.5t-89.5 234.5t-243.5 98.5t-243.5 -98.5t-89.5 -234.5zM29 357q0 45 11 92.5t39 99t69.5 91t109 65t150.5 25.5t150.5 -25.5t109 -65t69.5 -91t39 -99t11 -92.5t-11 -92.5t-39 -99t-69.5 -91t-109 -65
t-150.5 -25.5t-150.5 25.5t-109 65t-69.5 91t-39 99t-11 92.5zM487 897h58l-157 -142h-45z" />
    <glyph glyph-name="Ocircumflex" unicode="&#xd4;" horiz-adv-x="816" 
d="M75 357q0 -136 89.5 -234.5t243.5 -98.5t243.5 98.5t89.5 234.5t-89.5 234.5t-243.5 98.5t-243.5 -98.5t-89.5 -234.5zM29 357q0 45 11 92.5t39 99t69.5 91t109 65t150.5 25.5t150.5 -25.5t109 -65t69.5 -91t39 -99t11 -92.5t-11 -92.5t-39 -99t-69.5 -91t-109 -65
t-150.5 -25.5t-150.5 25.5t-109 65t-69.5 91t-39 99t-11 92.5zM591 755h-53l-130 114l-130 -114h-53l155 142h56z" />
    <glyph glyph-name="Otilde" unicode="&#xd5;" horiz-adv-x="816" 
d="M75 357q0 -136 89.5 -234.5t243.5 -98.5t243.5 98.5t89.5 234.5t-89.5 234.5t-243.5 98.5t-243.5 -98.5t-89.5 -234.5zM29 357q0 45 11 92.5t39 99t69.5 91t109 65t150.5 25.5t150.5 -25.5t109 -65t69.5 -91t39 -99t11 -92.5t-11 -92.5t-39 -99t-69.5 -91t-109 -65
t-150.5 -25.5t-150.5 25.5t-109 65t-69.5 91t-39 99t-11 92.5zM268 778h-34q5 36 29 60q26 28 65 28q35 0 87 -27q56 -27 78 -27q44 0 55 54h34q-5 -36 -27 -61q-24 -27 -59 -27t-91 27q-52 27 -80 27q-23 0 -39 -16t-18 -38z" />
    <glyph glyph-name="Odieresis" unicode="&#xd6;" horiz-adv-x="816" 
d="M75 357q0 -136 89.5 -234.5t243.5 -98.5t243.5 98.5t89.5 234.5t-89.5 234.5t-243.5 98.5t-243.5 -98.5t-89.5 -234.5zM29 357q0 45 11 92.5t39 99t69.5 91t109 65t150.5 25.5t150.5 -25.5t109 -65t69.5 -91t39 -99t11 -92.5t-11 -92.5t-39 -99t-69.5 -91t-109 -65
t-150.5 -25.5t-150.5 25.5t-109 65t-69.5 91t-39 99t-11 92.5zM279 760v106h46v-106h-46zM491 760v106h46v-106h-46z" />
    <glyph glyph-name="multiply" unicode="&#xd7;" horiz-adv-x="600" 
d="M79 59l195 194l-195 195l26 27l195 -196l194 196l27 -27l-195 -195l195 -194l-27 -27l-194 195l-195 -195z" />
    <glyph glyph-name="Oslash" unicode="&#xd8;" horiz-adv-x="816" 
d="M33 6l93 93q-50 56 -73.5 125.5t-23.5 132.5q0 45 11 92.5t39 99t69.5 91t109 65t150.5 25.5q160 0 260 -93l93 93l22 -22l-94 -93q50 -55 74 -125t24 -133q0 -45 -11 -92.5t-39 -99t-69.5 -91t-109 -65t-150.5 -25.5q-159 0 -260 92l-93 -92zM158 131l478 475
q-91 84 -228 84q-154 0 -243.5 -98.5t-89.5 -234.5q0 -135 83 -226zM658 584l-478 -476q90 -84 228 -84q154 0 243.5 98.5t89.5 234.5q0 133 -83 227z" />
    <glyph glyph-name="Ugrave" unicode="&#xd9;" horiz-adv-x="740" 
d="M54 264v450h46v-448q0 -120 63 -181t207 -61t207 61t63 181v448h46v-450q0 -280 -316 -280t-316 280zM390 755l-157 142h58l144 -142h-45z" />
    <glyph glyph-name="Uacute" unicode="&#xda;" horiz-adv-x="740" 
d="M54 264v450h46v-448q0 -120 63 -181t207 -61t207 61t63 181v448h46v-450q0 -280 -316 -280t-316 280zM449 897h58l-157 -142h-45z" />
    <glyph glyph-name="Ucircumflex" unicode="&#xdb;" horiz-adv-x="740" 
d="M54 264v450h46v-448q0 -120 63 -181t207 -61t207 61t63 181v448h46v-450q0 -280 -316 -280t-316 280zM553 755h-53l-130 114l-130 -114h-53l155 142h56z" />
    <glyph glyph-name="Udieresis" unicode="&#xdc;" horiz-adv-x="740" 
d="M54 264v450h46v-448q0 -120 63 -181t207 -61t207 61t63 181v448h46v-450q0 -280 -316 -280t-316 280zM241 760v106h46v-106h-46zM453 760v106h46v-106h-46z" />
    <glyph glyph-name="Yacute" unicode="&#xdd;" horiz-adv-x="668" 
d="M311 300l-331 414h64l290 -371l296 371h58l-331 -414v-300h-46v300zM413 897h58l-157 -142h-45z" />
    <glyph glyph-name="Thorn" unicode="&#xde;" horiz-adv-x="667" 
d="M60 0v714h46v-150h326q42 0 77 -8.5t68.5 -29t52.5 -61.5t19 -99q0 -94 -55.5 -148t-168.5 -54h-319v-164h-46zM106 524v-320h318q35 0 65 7.5t56.5 25t42 50t15.5 77.5q0 46 -15 78t-33 47.5t-49 24t-48.5 9.5t-44.5 1h-307z" />
    <glyph glyph-name="germandbls" unicode="&#xdf;" horiz-adv-x="593" 
d="M102 0h-46v522q0 206 232 206q111 0 177 -42t66 -134q0 -53 -33 -97t-109 -55v-2q87 -6 132.5 -58t45.5 -135q0 -94 -61.5 -154.5t-177.5 -60.5q-56 0 -79 10v40q30 -10 82 -10q83 0 136.5 43t53.5 141q0 161 -223 161h-37v40h30q92 0 143 34t51 103q0 21 -7.5 41.5
t-26 43.5t-59.5 37t-99 14q-191 0 -191 -165v-523z" />
    <glyph glyph-name="agrave" unicode="&#xe0;" horiz-adv-x="593" 
d="M476 192v94h-2q-21 -23 -82 -27l-173 -12q-71 -5 -109 -29t-38 -78q0 -116 167 -116q56 0 107.5 15.5t90.5 55.5t39 97zM95 354h-46q13 96 67 135t171 39q118 0 176.5 -33.5t58.5 -116.5v-287q0 -24 1 -34t9 -18.5t24 -8.5q21 0 45 8v-40q-22 -8 -56 -8q-18 0 -30.5 6
t-19 13.5t-9.5 24.5t-3.5 29.5t-0.5 38.5h-2q-64 -118 -244 -118q-210 0 -210 156q0 136 193 147l179 12q45 3 61.5 16t16.5 57q0 57 -42 86.5t-148 29.5q-98 0 -139 -31t-52 -103zM317 593l-157 142h58l144 -142h-45z" />
    <glyph glyph-name="aacute" unicode="&#xe1;" horiz-adv-x="593" 
d="M476 192v94h-2q-21 -23 -82 -27l-173 -12q-71 -5 -109 -29t-38 -78q0 -116 167 -116q56 0 107.5 15.5t90.5 55.5t39 97zM95 354h-46q13 96 67 135t171 39q118 0 176.5 -33.5t58.5 -116.5v-287q0 -24 1 -34t9 -18.5t24 -8.5q21 0 45 8v-40q-22 -8 -56 -8q-18 0 -30.5 6
t-19 13.5t-9.5 24.5t-3.5 29.5t-0.5 38.5h-2q-64 -118 -244 -118q-210 0 -210 156q0 136 193 147l179 12q45 3 61.5 16t16.5 57q0 57 -42 86.5t-148 29.5q-98 0 -139 -31t-52 -103zM376 735h58l-157 -142h-45z" />
    <glyph glyph-name="acircumflex" unicode="&#xe2;" horiz-adv-x="593" 
d="M476 192v94h-2q-21 -23 -82 -27l-173 -12q-71 -5 -109 -29t-38 -78q0 -116 167 -116q56 0 107.5 15.5t90.5 55.5t39 97zM95 354h-46q13 96 67 135t171 39q118 0 176.5 -33.5t58.5 -116.5v-287q0 -24 1 -34t9 -18.5t24 -8.5q21 0 45 8v-40q-22 -8 -56 -8q-18 0 -30.5 6
t-19 13.5t-9.5 24.5t-3.5 29.5t-0.5 38.5h-2q-64 -118 -244 -118q-210 0 -210 156q0 136 193 147l179 12q45 3 61.5 16t16.5 57q0 57 -42 86.5t-148 29.5q-98 0 -139 -31t-52 -103zM480 593h-53l-130 114l-130 -114h-53l155 142h56z" />
    <glyph glyph-name="atilde" unicode="&#xe3;" horiz-adv-x="593" 
d="M476 192v94h-2q-21 -23 -82 -27l-173 -12q-71 -5 -109 -29t-38 -78q0 -116 167 -116q56 0 107.5 15.5t90.5 55.5t39 97zM95 354h-46q13 96 67 135t171 39q118 0 176.5 -33.5t58.5 -116.5v-287q0 -24 1 -34t9 -18.5t24 -8.5q21 0 45 8v-40q-22 -8 -56 -8q-18 0 -30.5 6
t-19 13.5t-9.5 24.5t-3.5 29.5t-0.5 38.5h-2q-64 -118 -244 -118q-210 0 -210 156q0 136 193 147l179 12q45 3 61.5 16t16.5 57q0 57 -42 86.5t-148 29.5q-98 0 -139 -31t-52 -103zM157 616h-34q5 36 29 60q26 28 65 28q35 0 87 -27q56 -27 78 -27q44 0 55 54h34
q-5 -36 -27 -61q-24 -27 -59 -27t-91 27q-52 27 -80 27q-23 0 -39 -16t-18 -38z" />
    <glyph glyph-name="adieresis" unicode="&#xe4;" horiz-adv-x="593" 
d="M476 192v94h-2q-21 -23 -82 -27l-173 -12q-71 -5 -109 -29t-38 -78q0 -116 167 -116q56 0 107.5 15.5t90.5 55.5t39 97zM95 354h-46q13 96 67 135t171 39q118 0 176.5 -33.5t58.5 -116.5v-287q0 -24 1 -34t9 -18.5t24 -8.5q21 0 45 8v-40q-22 -8 -56 -8q-18 0 -30.5 6
t-19 13.5t-9.5 24.5t-3.5 29.5t-0.5 38.5h-2q-64 -118 -244 -118q-210 0 -210 156q0 136 193 147l179 12q45 3 61.5 16t16.5 57q0 57 -42 86.5t-148 29.5q-98 0 -139 -31t-52 -103zM168 598v106h46v-106h-46zM380 598v106h46v-106h-46z" />
    <glyph glyph-name="aring" unicode="&#xe5;" horiz-adv-x="593" 
d="M476 192v94h-2q-21 -23 -82 -27l-173 -12q-71 -5 -109 -29t-38 -78q0 -116 167 -116q56 0 107.5 15.5t90.5 55.5t39 97zM95 354h-46q13 96 67 135t171 39q118 0 176.5 -33.5t58.5 -116.5v-287q0 -24 1 -34t9 -18.5t24 -8.5q21 0 45 8v-40q-22 -8 -56 -8q-18 0 -30.5 6
t-19 13.5t-9.5 24.5t-3.5 29.5t-0.5 38.5h-2q-64 -118 -244 -118q-210 0 -210 156q0 136 193 147l179 12q45 3 61.5 16t16.5 57q0 57 -42 86.5t-148 29.5q-98 0 -139 -31t-52 -103zM187 678q0 46 32 78t78 32t78 -32t32 -78t-32 -78t-78 -32t-78 32t-32 78zM221 678
q0 -32 22.5 -54t53.5 -22t53.5 22t22.5 54t-22.5 54t-53.5 22t-53.5 -22t-22.5 -54z" />
    <glyph glyph-name="ae" unicode="&#xe6;" horiz-adv-x="1055" 
d="M1038 246h-522q2 -99 66.5 -160.5t177.5 -61.5q56 0 97.5 15t65.5 42t34.5 45t20.5 44h46q-62 -186 -269 -186q-86 0 -155 36.5t-100 120.5h-2q-20 -71 -89 -114t-173 -43q-210 0 -210 156q0 136 193 147l179 12q45 3 61.5 16t16.5 57q0 57 -42 86.5t-148 29.5
q-98 0 -139 -31t-52 -103h-46q13 96 67 135t171 39q48 0 83.5 -5.5t68.5 -19.5t52.5 -42t24.5 -69h2q25 63 88 99.5t150 36.5q131 0 205.5 -78t76.5 -204zM516 286h470q-14 101 -78 151.5t-157 50.5q-97 0 -158.5 -54.5t-76.5 -147.5zM476 192v94h-2q-21 -23 -82 -27
l-173 -12q-71 -5 -109 -29t-38 -78q0 -116 167 -116q56 0 107.5 15.5t90.5 55.5t39 97z" />
    <glyph glyph-name="ccedilla" unicode="&#xe7;" horiz-adv-x="611" 
d="M539 179h46q-19 -94 -90.5 -143t-172.5 -51l-36 -40l2 -2q28 6 44 6q33 0 59 -16.5t26 -46.5q0 -39 -33.5 -57.5t-77.5 -18.5q-49 0 -111 18l10 28q48 -18 90 -18q82 0 82 45q0 38 -61 38q-31 0 -59 -12l-17 15l51 62q-118 7 -191.5 79.5t-73.5 185.5q0 130 83 203.5
t206 73.5q112 0 185 -53.5t78 -123.5h-46q-5 52 -67 94.5t-150 42.5q-115 0 -179 -69.5t-64 -167.5q0 -34 12.5 -71t39 -73t76.5 -59.5t115 -23.5q82 0 145 39.5t79 115.5z" />
    <glyph glyph-name="egrave" unicode="&#xe8;" horiz-adv-x="611" 
d="M594 246h-522q2 -99 66.5 -160.5t177.5 -61.5q56 0 97.5 15t65.5 42t34.5 45t20.5 44h46q-62 -186 -269 -186q-131 0 -208 74.5t-77 201.5q0 34 8.5 69t29.5 71.5t52.5 64t82 45.5t113.5 18q131 0 205.5 -78t76.5 -204zM72 286h470q-14 101 -78 151.5t-157 50.5
q-97 0 -158.5 -54.5t-76.5 -147.5zM326 593l-157 142h58l144 -142h-45z" />
    <glyph glyph-name="eacute" unicode="&#xe9;" horiz-adv-x="611" 
d="M594 246h-522q2 -99 66.5 -160.5t177.5 -61.5q56 0 97.5 15t65.5 42t34.5 45t20.5 44h46q-62 -186 -269 -186q-131 0 -208 74.5t-77 201.5q0 34 8.5 69t29.5 71.5t52.5 64t82 45.5t113.5 18q131 0 205.5 -78t76.5 -204zM72 286h470q-14 101 -78 151.5t-157 50.5
q-97 0 -158.5 -54.5t-76.5 -147.5zM385 735h58l-157 -142h-45z" />
    <glyph glyph-name="ecircumflex" unicode="&#xea;" horiz-adv-x="611" 
d="M594 246h-522q2 -99 66.5 -160.5t177.5 -61.5q56 0 97.5 15t65.5 42t34.5 45t20.5 44h46q-62 -186 -269 -186q-131 0 -208 74.5t-77 201.5q0 34 8.5 69t29.5 71.5t52.5 64t82 45.5t113.5 18q131 0 205.5 -78t76.5 -204zM72 286h470q-14 101 -78 151.5t-157 50.5
q-97 0 -158.5 -54.5t-76.5 -147.5zM489 593h-53l-130 114l-130 -114h-53l155 142h56z" />
    <glyph glyph-name="edieresis" unicode="&#xeb;" horiz-adv-x="611" 
d="M594 246h-522q2 -99 66.5 -160.5t177.5 -61.5q56 0 97.5 15t65.5 42t34.5 45t20.5 44h46q-62 -186 -269 -186q-131 0 -208 74.5t-77 201.5q0 34 8.5 69t29.5 71.5t52.5 64t82 45.5t113.5 18q131 0 205.5 -78t76.5 -204zM72 286h470q-14 101 -78 151.5t-157 50.5
q-97 0 -158.5 -54.5t-76.5 -147.5zM177 598v106h46v-106h-46zM389 598v106h46v-106h-46z" />
    <glyph glyph-name="igrave" unicode="&#xec;" 
d="M60 0v512h46v-512h-46zM103 593l-157 142h58l144 -142h-45z" />
    <glyph glyph-name="iacute" unicode="&#xed;" 
d="M60 0v512h46v-512h-46zM162 735h58l-157 -142h-45z" />
    <glyph glyph-name="icircumflex" unicode="&#xee;" 
d="M60 0v512h46v-512h-46zM266 593h-53l-130 114l-130 -114h-53l155 142h56z" />
    <glyph glyph-name="idieresis" unicode="&#xef;" 
d="M60 0v512h46v-512h-46zM-46 598v106h46v-106h-46zM166 598v106h46v-106h-46z" />
    <glyph glyph-name="eth" unicode="&#xf0;" horiz-adv-x="630" 
d="M72 256q0 -95 64 -163.5t179 -68.5t179 68.5t64 163.5t-64 163.5t-179 68.5t-179 -68.5t-64 -163.5zM463 753l23 -23l-109 -54q106 -68 166.5 -173t60.5 -235q0 -127 -77 -205.5t-212 -78.5q-132 0 -210.5 79.5t-78.5 192.5q0 112 76.5 192t201.5 80q161 0 240 -120l2 2
q-76 166 -210 245l-118 -58l-27 20l112 56q-58 29 -136 49l27 31q81 -21 151 -59z" />
    <glyph glyph-name="ntilde" unicode="&#xf1;" horiz-adv-x="611" 
d="M56 0v512h46v-102h2q27 52 81 85t135 33q48 0 86.5 -9t63 -21.5t41.5 -33.5t25.5 -38t13 -41.5t5 -36.5t0.5 -32v-316h-46v314q0 85 -41.5 129.5t-148.5 44.5q-106 0 -161.5 -55.5t-55.5 -133.5v-299h-46zM166 616h-34q5 36 29 60q26 28 65 28q35 0 87 -27q56 -27 78 -27
q44 0 55 54h34q-5 -36 -27 -61q-24 -27 -59 -27t-91 27q-52 27 -80 27q-23 0 -39 -16t-18 -38z" />
    <glyph glyph-name="ograve" unicode="&#xf2;" horiz-adv-x="630" 
d="M72 256q0 -95 64 -163.5t179 -68.5t179 68.5t64 163.5t-64 163.5t-179 68.5t-179 -68.5t-64 -163.5zM26 256q0 113 78.5 192.5t210.5 79.5t210.5 -79.5t78.5 -192.5t-78.5 -192.5t-210.5 -79.5t-210.5 79.5t-78.5 192.5zM335 593l-157 142h58l144 -142h-45z" />
    <glyph glyph-name="oacute" unicode="&#xf3;" horiz-adv-x="630" 
d="M72 256q0 -95 64 -163.5t179 -68.5t179 68.5t64 163.5t-64 163.5t-179 68.5t-179 -68.5t-64 -163.5zM26 256q0 113 78.5 192.5t210.5 79.5t210.5 -79.5t78.5 -192.5t-78.5 -192.5t-210.5 -79.5t-210.5 79.5t-78.5 192.5zM394 735h58l-157 -142h-45z" />
    <glyph glyph-name="ocircumflex" unicode="&#xf4;" horiz-adv-x="630" 
d="M72 256q0 -95 64 -163.5t179 -68.5t179 68.5t64 163.5t-64 163.5t-179 68.5t-179 -68.5t-64 -163.5zM26 256q0 113 78.5 192.5t210.5 79.5t210.5 -79.5t78.5 -192.5t-78.5 -192.5t-210.5 -79.5t-210.5 79.5t-78.5 192.5zM498 593h-53l-130 114l-130 -114h-53l155 142h56z
" />
    <glyph glyph-name="otilde" unicode="&#xf5;" horiz-adv-x="630" 
d="M72 256q0 -95 64 -163.5t179 -68.5t179 68.5t64 163.5t-64 163.5t-179 68.5t-179 -68.5t-64 -163.5zM26 256q0 113 78.5 192.5t210.5 79.5t210.5 -79.5t78.5 -192.5t-78.5 -192.5t-210.5 -79.5t-210.5 79.5t-78.5 192.5zM175 616h-34q5 36 29 60q26 28 65 28q35 0 87 -27
q56 -27 78 -27q44 0 55 54h34q-5 -36 -27 -61q-24 -27 -59 -27t-91 27q-52 27 -80 27q-23 0 -39 -16t-18 -38z" />
    <glyph glyph-name="odieresis" unicode="&#xf6;" horiz-adv-x="630" 
d="M72 256q0 -95 64 -163.5t179 -68.5t179 68.5t64 163.5t-64 163.5t-179 68.5t-179 -68.5t-64 -163.5zM26 256q0 113 78.5 192.5t210.5 79.5t210.5 -79.5t78.5 -192.5t-78.5 -192.5t-210.5 -79.5t-210.5 79.5t-78.5 192.5zM186 598v106h46v-106h-46zM398 598v106h46v-106
h-46z" />
    <glyph glyph-name="divide" unicode="&#xf7;" horiz-adv-x="600" 
d="M47 233v40h506v-40h-506zM247 453q0 22 15.5 37.5t37.5 15.5t37.5 -15.5t15.5 -37.5t-15.5 -37.5t-37.5 -15.5t-37.5 15.5t-15.5 37.5zM247 53q0 22 15.5 37.5t37.5 15.5t37.5 -15.5t15.5 -37.5t-15.5 -37.5t-37.5 -15.5t-37.5 15.5t-15.5 37.5z" />
    <glyph glyph-name="oslash" unicode="&#xf8;" horiz-adv-x="630" 
d="M131 98l349 334q-64 56 -165 56q-115 0 -179 -68.5t-64 -163.5q0 -94 59 -158zM499 414l-349 -334q66 -56 165 -56q115 0 179 68.5t64 163.5q0 93 -59 158zM29 0l71 68q-74 76 -74 188q0 113 78.5 192.5t210.5 79.5q117 0 196 -66l72 69l18 -19l-71 -68q74 -77 74 -188
q0 -113 -78.5 -192.5t-210.5 -79.5q-118 0 -196 66l-72 -69z" />
    <glyph glyph-name="ugrave" unicode="&#xf9;" horiz-adv-x="611" 
d="M555 512v-512h-46v102h-2q-27 -52 -81 -85t-135 -33q-48 0 -86.5 9t-63 21.5t-41.5 33.5t-25.5 38t-13 41.5t-5 36.5t-0.5 32v316h46v-314q0 -85 41.5 -129.5t148.5 -44.5q106 0 161.5 55.5t55.5 133.5v299h46zM326 593l-157 142h58l144 -142h-45z" />
    <glyph glyph-name="uacute" unicode="&#xfa;" horiz-adv-x="611" 
d="M555 512v-512h-46v102h-2q-27 -52 -81 -85t-135 -33q-48 0 -86.5 9t-63 21.5t-41.5 33.5t-25.5 38t-13 41.5t-5 36.5t-0.5 32v316h46v-314q0 -85 41.5 -129.5t148.5 -44.5q106 0 161.5 55.5t55.5 133.5v299h46zM385 735h58l-157 -142h-45z" />
    <glyph glyph-name="ucircumflex" unicode="&#xfb;" horiz-adv-x="611" 
d="M555 512v-512h-46v102h-2q-27 -52 -81 -85t-135 -33q-48 0 -86.5 9t-63 21.5t-41.5 33.5t-25.5 38t-13 41.5t-5 36.5t-0.5 32v316h46v-314q0 -85 41.5 -129.5t148.5 -44.5q106 0 161.5 55.5t55.5 133.5v299h46zM489 593h-53l-130 114l-130 -114h-53l155 142h56z" />
    <glyph glyph-name="udieresis" unicode="&#xfc;" horiz-adv-x="611" 
d="M555 512v-512h-46v102h-2q-27 -52 -81 -85t-135 -33q-48 0 -86.5 9t-63 21.5t-41.5 33.5t-25.5 38t-13 41.5t-5 36.5t-0.5 32v316h46v-314q0 -85 41.5 -129.5t148.5 -44.5q106 0 161.5 55.5t55.5 133.5v299h46zM177 598v106h46v-106h-46zM389 598v106h46v-106h-46z" />
    <glyph glyph-name="yacute" unicode="&#xfd;" horiz-adv-x="519" 
d="M246 0l-259 512h52l230 -461l211 461h52l-282 -602q-23 -48 -50 -71t-82 -23h-64v40h55q44 0 62.5 16t48.5 76zM339 735h58l-157 -142h-45z" />
    <glyph glyph-name="thorn" unicode="&#xfe;" horiz-adv-x="630" 
d="M56 -202v916h46v-314h2q21 53 78.5 90.5t148.5 37.5q129 0 201 -79t72 -194q0 -121 -77.5 -196t-195.5 -75q-86 0 -143 37t-84 88h-2v-311h-46zM336 488q-55 0 -98.5 -15t-69.5 -38.5t-42.5 -54.5t-23 -60t-6.5 -59q0 -64 21.5 -112.5t57 -74t74.5 -38t81 -12.5
q95 0 161.5 59.5t66.5 170.5q0 108 -62 171t-160 63z" />
    <glyph glyph-name="ydieresis" unicode="&#xff;" horiz-adv-x="519" 
d="M246 0l-259 512h52l230 -461l211 461h52l-282 -602q-23 -48 -50 -71t-82 -23h-64v40h55q44 0 62.5 16t48.5 76zM131 598v106h46v-106h-46zM343 598v106h46v-106h-46z" />
    <glyph glyph-name="dotlessi" unicode="&#x131;" 
d="M60 0v512h46v-512h-46z" />
    <glyph glyph-name="Lslash" unicode="&#x141;" horiz-adv-x="574" 
d="M60 0v237l-60 -48v46l60 48v431h46v-394l258 208v-46l-258 -208v-234h468v-40h-514z" />
    <glyph glyph-name="lslash" unicode="&#x142;" 
d="M60 0v328l-60 -63v45l60 63v341h46v-293l60 63v-45l-60 -63v-376h-46z" />
    <glyph glyph-name="OE" unicode="&#x152;" horiz-adv-x="1167" 
d="M632 140v438q0 35 -68 73.5t-164 38.5q-151 0 -235.5 -92t-84.5 -239q0 -66 17.5 -123.5t53.5 -106.5t100 -77t149 -28q100 0 166 41.5t66 74.5zM678 350v-310h471v-40h-517v76q-85 -92 -236 -92q-165 0 -263.5 100t-98.5 275q0 170 102.5 270.5t259.5 100.5
q153 0 236 -84v68h511v-40h-465v-284h444v-40h-444z" />
    <glyph glyph-name="oe" unicode="&#x153;" horiz-adv-x="1074" 
d="M561 286h441q-25 202 -220 202q-94 0 -157.5 -61t-63.5 -141zM996 165h46q-19 -84 -89.5 -132.5t-170.5 -48.5q-87 0 -155 41t-87 117h-2q-60 -158 -245 -158q-122 0 -194.5 74.5t-72.5 197.5q0 120 75.5 196t195.5 76q88 0 151.5 -40.5t92.5 -118.5h2q35 81 97.5 120
t141.5 39q128 0 195 -76t71 -206h-487q0 -102 59 -162t162 -60q175 0 214 141zM521 256q0 107 -59 169.5t-165 62.5q-104 0 -164.5 -63t-60.5 -169q0 -105 59.5 -168.5t165.5 -63.5q104 0 164 63t60 169z" />
    <glyph glyph-name="Scaron" unicode="&#x160;" horiz-adv-x="667" 
d="M28 236h46q2 -212 274 -212q123 0 181 45t58 114q0 61 -39 92.5t-149 54.5l-133 28q-119 25 -167.5 66t-48.5 121q0 83 70.5 134t199.5 51q140 0 217.5 -53.5t81.5 -164.5h-46q-13 178 -240 178q-231 0 -231 -146q0 -59 35 -90t134 -51l147 -29q114 -22 167.5 -64
t53.5 -124q0 -39 -14 -73t-45 -64t-89.5 -47.5t-138.5 -17.5q-324 0 -324 252zM464 897h53l-155 -142h-56l-155 142h53l130 -114z" />
    <glyph glyph-name="scaron" unicode="&#x161;" horiz-adv-x="537" 
d="M496 362h-46q-5 65 -50.5 95.5t-143.5 30.5q-88 0 -127.5 -28.5t-39.5 -73.5q0 -73 103 -87l163 -22q78 -11 119.5 -43t41.5 -97q0 -153 -245 -153q-240 0 -250 176h46q2 -22 5 -35t16 -35t34.5 -34t62.5 -22t98 -10q99 0 143 28.5t44 84.5q0 79 -103 93l-180 24
q-59 7 -101.5 37.5t-42.5 91.5q0 24 9.5 47.5t32 46.5t67 37t106.5 14q226 0 238 -166zM399 735h53l-155 -142h-56l-155 142h53l130 -114z" />
    <glyph glyph-name="Ydieresis" unicode="&#x178;" horiz-adv-x="668" 
d="M311 300l-331 414h64l290 -371l296 371h58l-331 -414v-300h-46v300zM205 760v106h46v-106h-46zM417 760v106h46v-106h-46z" />
    <glyph glyph-name="Zcaron" unicode="&#x17d;" horiz-adv-x="611" 
d="M-5 0v49l561 625h-528v40h580v-46l-561 -628h569v-40h-621zM436 897h53l-155 -142h-56l-155 142h53l130 -114z" />
    <glyph glyph-name="zcaron" unicode="&#x17e;" horiz-adv-x="519" 
d="M12 0v46l417 426h-391v40h455v-34l-429 -438h443v-40h-495zM390 735h53l-155 -142h-56l-155 142h53l130 -114z" />
    <glyph glyph-name="florin" unicode="&#x192;" horiz-adv-x="648" 
d="M148 390l8 34h138l33 153q17 78 54.5 110.5t115.5 32.5q31 0 69 -6l-8 -40q-48 5 -68 6q-57 0 -83 -28t-38 -88l-29 -140h141l-6 -34h-142l-83 -398q-7 -34 -11.5 -51t-13.5 -42.5t-20.5 -38t-29.5 -26t-44.5 -19t-60.5 -5.5q-27 0 -71 4l7 40q28 -4 64 -4q62 0 87 25.5
t35 72.5l95 442h-139z" />
    <glyph glyph-name="circumflex" unicode="&#x2c6;" 
d="M266 593h-53l-130 114l-130 -114h-53l155 142h56z" />
    <glyph glyph-name="caron" unicode="&#x2c7;" 
d="M213 735h53l-155 -142h-56l-155 142h53l130 -114z" />
    <glyph glyph-name="uni02C9" unicode="&#x2c9;" 
d="M-108 640v34h382v-34h-382z" />
    <glyph glyph-name="breve" unicode="&#x2d8;" 
d="M-75 720h34q11 -47 41.5 -65t82.5 -18t82.5 18t41.5 65h34q-13 -117 -158 -117t-158 117z" />
    <glyph glyph-name="dotaccent" unicode="&#x2d9;" 
d="M60 598v106h46v-106h-46z" />
    <glyph glyph-name="ring" unicode="&#x2da;" 
d="M-27 678q0 46 32 78t78 32t78 -32t32 -78t-32 -78t-78 -32t-78 32t-32 78zM7 678q0 -32 22.5 -54t53.5 -22t53.5 22t22.5 54t-22.5 54t-53.5 22t-53.5 -22t-22.5 -54z" />
    <glyph glyph-name="ogonek" unicode="&#x2db;" 
d="M211 -148l12 -25q-43 -17 -103 -17q-47 0 -71 19.5t-24 52.5q0 42 38.5 73.5t80.5 44.5h31q-46 -20 -78 -50t-32 -62q0 -50 65 -50q44 0 81 14z" />
    <glyph glyph-name="tilde" unicode="&#x2dc;" 
d="M-57 616h-34q5 36 29 60q26 28 65 28q35 0 87 -27q56 -27 78 -27q44 0 55 54h34q-5 -36 -27 -61q-24 -27 -59 -27t-91 27q-52 27 -80 27q-23 0 -39 -16t-18 -38z" />
    <glyph glyph-name="hungarumlaut" unicode="&#x2dd;" 
d="M64 735h58l-157 -142h-45zM258 735h58l-157 -142h-45z" />
    <glyph glyph-name="uni03A9" unicode="&#x3a9;" horiz-adv-x="855" 
d="M251 34v3q-74 53 -121.5 138.5t-47.5 193.5q0 154 101.5 252.5t246.5 98.5q148 0 245 -103t97 -245q0 -112 -50 -200.5t-120 -134.5v-3h187v-34h-261v25q84 43 143 133t59 211q0 54 -20 109t-56 102t-94.5 76.5t-128.5 29.5q-136 0 -221 -93.5t-85 -226.5
q0 -115 59.5 -206.5t141.5 -134.5v-25h-260v34h185z" />
    <glyph glyph-name="uni03BC" unicode="&#x3bc;" horiz-adv-x="611" 
d="M555 512v-512h-46v102h-2q-27 -52 -81 -85t-135 -33q-133 0 -187 80h-2v-266h-46v714h46v-314q0 -85 41.5 -129.5t148.5 -44.5q106 0 161.5 55.5t55.5 133.5v299h46z" />
    <glyph glyph-name="pi" unicode="&#x3c0;" horiz-adv-x="636" 
d="M606 488h-104v-333q0 -105 18 -155h-42q-19 30 -19 146v342h-250q-7 -117 -34.5 -271.5t-57.5 -216.5h-43q33 73 59.5 220t32.5 268q-102 0 -143 -17l-11 29q51 24 150 24h449z" />
    <glyph glyph-name="uni2010" unicode="&#x2010;" horiz-adv-x="407" 
d="M75 247v46h257v-46h-257z" />
    <glyph glyph-name="endash" unicode="&#x2013;" horiz-adv-x="500" 
d="M0 253v34h500v-34h-500z" />
    <glyph glyph-name="emdash" unicode="&#x2014;" horiz-adv-x="1000" 
d="M0 253v34h1000v-34h-1000z" />
    <glyph glyph-name="quoteleft" unicode="&#x2018;" horiz-adv-x="222" 
d="M85 484v100q0 102 70 130v-34q-36 -16 -36 -81v-15h18v-100h-52z" />
    <glyph glyph-name="quoteright" unicode="&#x2019;" horiz-adv-x="222" 
d="M85 614v100h52v-100q0 -102 -70 -130v34q36 16 36 81v15h-18z" />
    <glyph glyph-name="quotesinglbase" unicode="&#x201a;" horiz-adv-x="222" 
d="M85 0v100h52v-100q0 -102 -70 -130v34q36 16 36 81v15h-18z" />
    <glyph glyph-name="quotedblleft" unicode="&#x201c;" horiz-adv-x="352" 
d="M74 484v100q0 102 70 130v-34q-36 -16 -36 -81v-15h18v-100h-52zM226 484v100q0 102 70 130v-34q-36 -16 -36 -81v-15h18v-100h-52z" />
    <glyph glyph-name="quotedblright" unicode="&#x201d;" horiz-adv-x="352" 
d="M74 614v100h52v-100q0 -102 -70 -130v34q36 16 36 81v15h-18zM226 614v100h52v-100q0 -102 -70 -130v34q36 16 36 81v15h-18z" />
    <glyph glyph-name="quotedblbase" unicode="&#x201e;" horiz-adv-x="352" 
d="M74 0v100h52v-100q0 -102 -70 -130v34q36 16 36 81v15h-18zM226 0v100h52v-100q0 -102 -70 -130v34q36 16 36 81v15h-18z" />
    <glyph glyph-name="dagger" unicode="&#x2020;" horiz-adv-x="648" 
d="M50 430v40h251v244h46v-244h251v-40h-251v-586h-46v586h-251z" />
    <glyph glyph-name="daggerdbl" unicode="&#x2021;" horiz-adv-x="648" 
d="M50 46v40h251v386h-251v40h251v202h46v-202h251v-40h-251v-386h251v-40h-251v-202h-46v202h-251z" />
    <glyph glyph-name="bullet" unicode="&#x2022;" horiz-adv-x="500" 
d="M72 357q0 73 52 125.5t126 52.5t126 -52.5t52 -125.5t-52 -125.5t-126 -52.5t-126 52.5t-52 125.5z" />
    <glyph glyph-name="ellipsis" unicode="&#x2026;" horiz-adv-x="1000" 
d="M141 0v100h52v-100h-52zM474 0v100h52v-100h-52zM807 0v100h52v-100h-52z" />
    <glyph glyph-name="perthousand" unicode="&#x2030;" horiz-adv-x="1167" 
d="M988 -16q-86 0 -130 52t-44 141q0 86 45 138t129 52q87 0 130.5 -50.5t43.5 -139.5q0 -86 -44.5 -139.5t-129.5 -53.5zM988 18q69 0 101.5 44t32.5 115t-32.5 113.5t-101.5 42.5q-68 0 -101 -42.5t-33 -113.5q0 -72 33 -115.5t101 -43.5zM589 -16q-86 0 -130 52t-44 141
q0 86 45 138t129 52q87 0 130.5 -50.5t43.5 -139.5q0 -86 -44.5 -139.5t-129.5 -53.5zM589 18q69 0 101.5 44t32.5 115t-32.5 113.5t-101.5 42.5q-68 0 -101 -42.5t-33 -113.5q0 -72 33 -115.5t101 -43.5zM179 337q-86 0 -130 52t-44 141q0 86 45 138t129 52
q87 0 130.5 -50.5t43.5 -139.5q0 -86 -44.5 -139.5t-129.5 -53.5zM179 371q69 0 101.5 44t32.5 115t-32.5 113.5t-101.5 42.5q-68 0 -101 -42.5t-33 -113.5q0 -72 33 -115.5t101 -43.5zM91 -22l529 748h40l-529 -748h-40z" />
    <glyph glyph-name="guilsinglleft" unicode="&#x2039;" horiz-adv-x="296" 
d="M73 247v46l136 135v-54l-102 -104l102 -104v-54z" />
    <glyph glyph-name="guilsinglright" unicode="&#x203a;" horiz-adv-x="296" 
d="M189 270l-102 104v54l136 -135v-46l-136 -135v54z" />
    <glyph glyph-name="fraction" unicode="&#x2044;" horiz-adv-x="167" 
d="M-165 -16l457 736h40l-457 -736h-40z" />
    <glyph glyph-name="Euro" unicode="&#x20ac;" horiz-adv-x="648" 
d="M638 625l-22 -42q-31 45 -83 70q-57 27 -135 27q-133 0 -204 -91q-47 -61 -58 -147h409l-16 -34h-398q-5 -56 0 -112h351l-16 -34h-331q13 -93 63 -153q69 -85 200 -85q78 0 137 31q55 29 93 81v-60q-33 -37 -76 -59q-66 -33 -157 -33q-150 0 -231 96q-61 73 -75 182h-89
l16 34h69q-5 56 0 112h-85l16 34h74q13 113 79 187q82 91 233 91q87 0 154 -31q49 -23 82 -64z" />
    <glyph glyph-name="afii61289" unicode="&#x2113;" horiz-adv-x="531" 
d="M475 137l27 -18q-71 -129 -199 -129q-87 0 -131.5 57.5t-46.5 139.5v13q-8 -6 -33 -25.5t-38 -29.5l-18 29q10 8 41.5 32.5t47.5 38.5v299q0 67 14.5 116t38.5 73.5t49.5 35.5t52.5 11q64 0 97.5 -46t33.5 -114q0 -95 -64 -190t-183 -202v-24q0 -91 42.5 -136.5
t102.5 -45.5q55 0 99 35t67 80zM164 551v-278q102 100 156.5 179.5t54.5 161.5q0 132 -98 132q-43 0 -78 -47.5t-35 -147.5z" />
    <glyph glyph-name="trademark" unicode="&#x2122;" horiz-adv-x="990" 
d="M187 302v378h-143v34h320v-34h-143v-378h-34zM832 302v378h-2l-167 -378h-18l-167 378h-2v-378h-34v412h58l154 -346l154 346h58v-412h-34z" />
    <glyph glyph-name="Omega" unicode="&#x2126;" horiz-adv-x="855" 
d="M251 34v3q-74 53 -121.5 138.5t-47.5 193.5q0 154 101.5 252.5t246.5 98.5q148 0 245 -103t97 -245q0 -112 -50 -200.5t-120 -134.5v-3h187v-34h-261v25q84 43 143 133t59 211q0 54 -20 109t-56 102t-94.5 76.5t-128.5 29.5q-136 0 -221 -93.5t-85 -226.5
q0 -115 59.5 -206.5t141.5 -134.5v-25h-260v34h185z" />
    <glyph glyph-name="estimated" unicode="&#x212e;" horiz-adv-x="887" 
d="M852 342h-662q-5 0 -5 -5v-200q0 -12 8 -23q107 -109 251 -109q77 0 145.5 32.5t117.5 89.5h59q-56 -66 -141 -104t-182 -38q-170 0 -289.5 107.5t-119.5 259.5t120 260t289 108t289 -108t120 -260v-10zM702 368v201q0 14 -10 24q-107 105 -248 105q-142 0 -250 -108
q-9 -10 -9 -25v-197q0 -7 5 -7h507q5 0 5 7z" />
    <glyph glyph-name="partialdiff" unicode="&#x2202;" horiz-adv-x="608" 
d="M116 702l-21 27q73 58 179 58q111 0 191.5 -102t80.5 -283q0 -79 -17 -151t-50.5 -132t-89.5 -95.5t-127 -35.5q-101 0 -155.5 70.5t-54.5 162.5q0 111 71 181t168 70q78 0 134 -42t77 -81h1q1 16 1 58q0 158 -69.5 252t-162.5 94q-88 0 -156 -51zM264 21h1
q92 0 153 80.5t76 197.5q-19 48 -74 93.5t-126 45.5q-81 0 -140.5 -62t-59.5 -151q0 -87 47 -145.5t123 -58.5z" />
    <glyph glyph-name="Delta" unicode="&#x2206;" horiz-adv-x="747" 
d="M38 0v39l313 692h47l311 -692v-39h-671zM80 35h583l-200 448q-8 20 -43.5 98.5t-44.5 104.5h-5q-6 -20 -39 -93.5t-39 -88.5z" />
    <glyph glyph-name="product" unicode="&#x220f;" horiz-adv-x="794" 
d="M764 671h-137v-769h-41v769h-379v-769h-41v769h-136v37h734v-37z" />
    <glyph glyph-name="summation" unicode="&#x2211;" horiz-adv-x="635" 
d="M606 -98h-581v29l332 372l-317 376v29h551v-37h-486v-4l303 -360l-322 -362v-3h520v-40z" />
    <glyph glyph-name="minus" unicode="&#x2212;" horiz-adv-x="600" 
d="M47 233v40h506v-40h-506z" />
    <glyph glyph-name="uni2215" unicode="&#x2215;" horiz-adv-x="167" 
d="M-165 -16l457 736h40l-457 -736h-40z" />
    <glyph glyph-name="uni2219" unicode="&#x2219;" horiz-adv-x="222" 
d="M55 320q0 23 16.5 39.5t39.5 16.5t39.5 -16.5t16.5 -39.5t-16.5 -39.5t-39.5 -16.5t-39.5 16.5t-16.5 39.5z" />
    <glyph glyph-name="radical" unicode="&#x221a;" horiz-adv-x="631" 
d="M629 835l-253 -992h-46l-191 487l-86 -31l-13 29l127 49l167 -430q12 -37 17 -58h1q2 10 7.5 30.5t6.5 25.5l227 890h36z" />
    <glyph glyph-name="infinity" unicode="&#x221e;" horiz-adv-x="868" 
d="M807 294v-1q0 -72 -48.5 -118.5t-114.5 -46.5q-22 0 -44 7.5t-37.5 16t-42 31.5t-39 35.5t-46.5 47.5q-68 -74 -100 -97q-56 -41 -115 -41q-65 0 -112.5 48t-47.5 115q0 71 48 118t120 47q39 0 80.5 -23.5t66 -48t64.5 -68.5q31 34 40 43.5t36.5 35t43.5 34.5t42 18t52 9
q71 0 112.5 -45t41.5 -117zM226 162h1q22 0 44 8t43.5 24.5t35.5 29.5t36 35.5t30 30.5q-2 2 -16 18t-17 19.5t-16.5 17.5t-18.5 18.5t-18 16t-20.5 15.5t-20.5 11.5t-23 10.5t-22.5 5.5t-25.5 2.5q-55 0 -87.5 -40.5t-31.5 -95.5q0 -53 35 -90t92 -37zM649 425h-2
q-28 0 -58.5 -16.5t-49.5 -33.5t-46.5 -45.5t-34.5 -35.5q53 -53 74 -73t54 -39.5t63 -19.5q55 0 88 39t33 90q0 62 -34.5 98t-86.5 36z" />
    <glyph glyph-name="integral" unicode="&#x222b;" horiz-adv-x="369" 
d="M357 841l-12 -30q-16 14 -44 14q-37 0 -58 -22q-44 -44 -44 -189q0 -78 7.5 -263t7.5 -262q0 -141 -53 -205q-31 -39 -87 -39q-41 0 -67 19l12 30q34 -15 55 -15q33 0 54 24q46 52 46 188q0 77 -7.5 264t-7.5 263q0 82 12 130t43 76q35 34 86 34q34 0 57 -17z" />
    <glyph glyph-name="approxequal" unicode="&#x2248;" horiz-adv-x="658" 
d="M574 434l21 -19q-53 -96 -139 -96q-8 0 -15.5 0.5t-15.5 2.5t-13.5 3t-15 4.5t-14 5.5t-15.5 7t-15 7.5t-17.5 9t-18.5 9.5q-76 38 -113 38q-64 0 -119 -84l-23 17q54 98 150 98q20 0 41 -6t32.5 -11.5t32.5 -17.5t26 -14q7 -3 22.5 -10.5t23.5 -11t20.5 -8t24 -6.5
t25.5 -2q36 0 62.5 20t52.5 64zM574 255l21 -19q-54 -96 -139 -96q-31 0 -56.5 9.5t-70.5 33.5q-9 5 -13 7q-74 37 -113 37t-66 -22t-53 -63l-23 19q54 98 150 98q25 0 47 -7t52.5 -23.5t32.5 -17.5q4 -2 16 -8.5t16.5 -8.5t14.5 -6.5t16.5 -6.5t16 -4.5t18.5 -3.5t19 -1
q36 0 62 19.5t52 63.5z" />
    <glyph glyph-name="notequal" unicode="&#x2260;" horiz-adv-x="658" 
d="M454 530l-57 -121h199v-33h-214l-85 -175h299v-32h-315l-66 -140l-28 15l60 125h-187v32h203l84 175h-287v33h302l65 136z" />
    <glyph glyph-name="lessequal" unicode="&#x2264;" horiz-adv-x="658" 
d="M593 79l-525 249v35l525 249v-41l-484 -223v-3l484 -225v-41zM596 0h-536v32h536v-32z" />
    <glyph glyph-name="greaterequal" unicode="&#x2265;" horiz-adv-x="658" 
d="M68 612l525 -249v-35l-525 -249v41l484 224v2l-484 225v41zM595 0h-535v32h535v-32z" />
    <glyph glyph-name="lozenge" unicode="&#x25ca;" horiz-adv-x="633" 
d="M566 354l-233 -406h-35l-232 406l233 406h34zM525 352l-187 325q-17 32 -22 47h-3q-9 -24 -22 -47l-185 -322l188 -326q17 -31 21 -45h3q7 20 21 45z" />
    <glyph glyph-name="fi" unicode="&#xfb01;" horiz-adv-x="444" 
d="M352 0v512h46v-512h-46zM352 608v106h46v-106h-46zM110 0v472h-120v40h120v77q0 66 27.5 98.5t102.5 32.5q21 0 79 -6v-40q-33 6 -73 6q-90 0 -90 -77v-91h148v-40h-148v-472h-46z" />
    <glyph glyph-name="fl" unicode="&#xfb02;" horiz-adv-x="444" 
d="M110 0v472h-120v40h120v77q0 66 27.5 98.5t102.5 32.5q21 0 79 -6v-40q-33 6 -73 6q-90 0 -90 -77v-91h148v-40h-148v-472h-46zM352 0v714h46v-714h-46z" />
    <glyph glyph-name="a.superior" horiz-adv-x="385" 
d="M306 521v53q-18 -15 -56 -17l-113 -8q-86 -6 -86 -64q0 -67 105 -67q55 0 102.5 26t47.5 77zM340 633v-164q0 -15 1 -21.5t6 -12t15 -5.5q9 0 29 4v-28q-15 -2 -40 -4q-16 0 -26 4t-13.5 14.5t-4.5 18.5t-1 25h-2q-40 -74 -150 -74q-137 0 -137 97q0 81 123 90l112 8
q54 4 54 36q0 15 -3.5 25.5t-14 22t-35 17.5t-62.5 6q-125 0 -125 -77h-34q0 55 42 80t107 25q35 0 60 -3t49 -11.5t37 -27t13 -45.5z" />
    <glyph glyph-name="o.superior" horiz-adv-x="410" 
d="M51 555q0 -55 41 -96t113 -41t113 41t41 96t-41 96t-113 41t-113 -41t-41 -96zM17 555q0 77 54 121t134 44t134 -44t54 -121t-54 -121t-134 -44t-134 44t-54 121z" />
    <glyph glyph-name="one.superior" horiz-adv-x="388" 
d="M201 286v369q-55 -46 -145 -55v28q40 2 86.5 24.5t61.5 55.5h31v-422h-34z" />
    <glyph glyph-name="two.superior" horiz-adv-x="421" 
d="M383 322v-28h-345q8 60 37.5 89t110.5 71q10 5 30 15.5t28 14.5t23.5 13t21.5 14t16.5 13.5t14.5 15t9.5 16t7 20t1.5 22.5q0 48 -36 71t-86 23q-69 0 -102.5 -32t-33.5 -89h-34q0 149 170 149q66 0 111 -29.5t45 -92.5q0 -30 -9.5 -52.5t-35 -42.5t-49 -33.5
t-71.5 -37.5q-62 -32 -93.5 -55t-41.5 -55h311z" />
    <glyph glyph-name="three.superior" horiz-adv-x="421" 
d="M187 500v28q23 0 37.5 0.5t39.5 5t39.5 12t26 24t11.5 39.5q0 45 -36 64t-86 19q-61 0 -99.5 -27.5t-38.5 -86.5h-34q4 142 178 142q59 0 104.5 -26t45.5 -85q0 -81 -101 -92v-2q49 0 81 -30t32 -82q0 -37 -15.5 -63.5t-42.5 -40t-56 -19.5t-64 -6q-80 0 -127.5 36.5
t-47.5 117.5h34q0 -126 148 -126q55 0 96 24.5t41 77.5q0 27 -12 46t-27.5 28.5t-41 14.5t-43 6t-42.5 1z" />
    </font>
</defs>
</svg>
